<svg id="栝鍣_1" data-name="栝鍣 1" xmlns="http://www.w3.org/2000/svg" viewBox="0 0 3898.45 1472"><defs><style>.cls-1{fill:#fff;stroke-width:11.67px;}.cls-1,.cls-2,.cls-3{stroke:#000;stroke-miterlimit:10;}.cls-2{stroke-width:6.18px;}.cls-3{stroke-width:1.73px;}</style></defs><g id="栝鍣_2" data-name="栝鍣 2"><rect class="cls-1" x="88.48" y="141.97" width="3731.94" height="1209.42" rx="199.18"/><path class="cls-2" d="M1248.73,842.2,1214.15,947h-44.47l113.14-333h51.88l113.64,333h-45.95L1366.82,842.2Zm109.19-33.59-32.61-95.85C1317.9,691,1313,671.25,1308,652h-1c-4.94,19.76-10.37,40-16.8,60.27l-32.61,96.35Z"/><path class="cls-2" d="M1494.28,785.88c0-30.63-1-55.34-2-78.06h39l2,41h1c17.79-29.15,46-46.44,85-46.44,57.81,0,101.29,48.91,101.29,121.54,0,86-52.37,128.46-108.7,128.46-31.62,0-59.29-13.83-73.61-37.55h-1v129.95h-43Zm43,63.74a98.56,98.56,0,0,0,2,17.78c7.91,30.14,34.1,50.89,65.22,50.89,46,0,72.63-37.55,72.63-92.39,0-47.93-25.2-88.93-71.15-88.93-29.64,0-57.31,21.24-65.71,53.85-1.48,5.43-3,11.86-3,17.79Z"/><path class="cls-2" d="M1775.4,785.88c0-30.63-1-55.34-2-78.06h39l2,41h1c17.79-29.15,45.95-46.44,85-46.44,57.81,0,101.28,48.91,101.28,121.54,0,86-52.37,128.46-108.69,128.46-31.62,0-59.29-13.83-73.62-37.55h-1v129.95h-43Zm43,63.74a97.64,97.64,0,0,0,2,17.78c7.9,30.14,34.09,50.89,65.22,50.89,46,0,72.63-37.55,72.63-92.39,0-47.93-25.2-88.93-71.15-88.93-29.65,0-57.31,21.24-65.71,53.85-1.49,5.43-3,11.86-3,17.79Z"/><path class="cls-2" d="M2156.8,894.58c19.27,11.85,47.43,21.74,77.08,21.74,44,0,69.66-23.23,69.66-56.82,0-31.13-17.79-48.92-62.75-66.21-54.34-19.27-87.94-47.43-87.94-94.37,0-51.88,43-90.41,107.71-90.41,34.09,0,58.79,7.9,73.61,16.3l-11.85,35.08a132.65,132.65,0,0,0-63.25-15.81c-45.45,0-62.74,27.17-62.74,49.9,0,31.13,20.25,46.44,66.2,64.23,56.33,21.74,85,48.92,85,97.83,0,51.38-38,95.85-116.6,95.85-32.11,0-67.19-9.39-85-21.25Z"/><path class="cls-2" d="M2455.71,639.14v68.68H2518v33.1h-62.26v129c0,29.65,8.4,46.45,32.61,46.45a96.72,96.72,0,0,0,25.2-3l2,32.61c-8.4,3.46-21.74,5.93-38.54,5.93-20.26,0-36.56-6.42-46.94-18.28-12.35-12.85-16.8-34.09-16.8-62.26V740.92h-37v-33.1h37V650.5Z"/><path class="cls-2" d="M2780.32,825.41c0,88.44-61.27,127-119.08,127-64.72,0-114.62-47.43-114.62-123,0-80,52.37-127,118.58-127C2733.87,702.38,2780.32,752.28,2780.32,825.41Zm-189.73,2.47c0,52.37,30.14,91.89,72.63,91.89,41.5,0,72.63-39,72.63-92.88,0-40.52-20.26-91.9-71.64-91.9S2590.59,782.42,2590.59,827.88Z"/><path class="cls-2" d="M2835.15,782.42c0-28.16-.5-52.37-2-74.6h38l1.48,46.93h2c10.87-32.11,37.06-52.37,66.21-52.37a47.35,47.35,0,0,1,12.35,1.48v41a65.15,65.15,0,0,0-14.82-1.48c-30.63,0-52.37,23.22-58.3,55.83a122.22,122.22,0,0,0-2,20.26V947h-43Z"/><path class="cls-2" d="M3016,835.29c1,58.79,38.53,83,82,83,31.13,0,49.9-5.43,66.21-12.35l7.41,31.13c-15.32,6.91-41.5,14.82-79.55,14.82-73.61,0-117.59-48.42-117.59-120.56s42.49-129,112.16-129c78.06,0,98.81,68.68,98.81,112.65a165.07,165.07,0,0,1-1.48,20.26Zm127.47-31.13c.49-27.67-11.37-70.65-60.28-70.65-44,0-63.24,40.51-66.7,70.65Z"/><path class="cls-3" d="M863.23,873.3c-31.12,88.9-94.26,168.23-151.48,168.23-23,0-31.45-22.79-79.78-22.79s-68.16,22.79-91.19,22.79c-79.78,0-171-154-171-273.55S449.6,597,518,597c36.81,0,76.48,22.79,114,22.79S697.73,597,734.55,597a143.28,143.28,0,0,1,109.87,51.63c-38.53,21.88-64.28,62-64.28,107.94C780.14,809.7,814.56,855.06,863.23,873.3Z"/><path class="cls-3" d="M711.39,539.74A114.83,114.83,0,0,0,730.08,506c6.35-18.11,8.79-38.34,4.47-57.17-.3-1.31-18.14,2.67-19.76,3.12a159.35,159.35,0,0,0-28.31,10.94C647.05,482.65,610.76,521,608.06,567c-.36,6.1-.38,12.68,1.11,18.66.24.94,13.18-.14,14.08-.2C658,582.93,690.23,566.24,711.39,539.74Z"/></g></svg>