<svg id="栝鍣_1" data-name="栝鍣 1" xmlns="http://www.w3.org/2000/svg" viewBox="0 0 3898.45 1472"><defs><style>.cls-1{fill:#fff;stroke-width:11.67px;}.cls-1,.cls-6{stroke:#000;stroke-miterlimit:10;}.cls-2{fill:#0ae577;}.cls-3{fill:#40c3ff;}.cls-4{fill:#ffc826;}.cls-5{fill:#ff3945;}.cls-6{stroke-width:6.18px;}</style></defs><rect class="cls-1" x="89.03" y="124.61" width="3731.94" height="1209.42" rx="199.18"/><path class="cls-2" d="M382.53,437.29,736.65,630.87l-99,96.09L347.11,442.41A29.74,29.74,0,0,1,382.53,437.29Z"/><path class="cls-3" d="M637.65,727l-293.9,285.29a29.49,29.49,0,0,1-5.35-17.1V463.47a29.3,29.3,0,0,1,8.71-21.06Z"/><path class="cls-4" d="M868.93,703.15c20.72,11.31,20.72,41,0,52.34l-129.75,70.9L637.65,727l99-96.09Z"/><path class="cls-5" d="M739.18,826.39,382.53,1021.33a29.81,29.81,0,0,1-38.78-9.08L637.65,727Z"/><path class="cls-6" d="M1413.07,835.3c-19.27,6.92-57.32,18.28-102.28,18.28-50.39,0-91.9-12.85-124.5-44-28.66-27.67-46.45-72.14-46.45-124,.5-99.31,68.68-171.93,180.34-171.93,38.54,0,68.68,8.39,83,15.31l-10.37,35.08c-17.79-7.9-40-14.33-73.62-14.33-81,0-133.89,50.4-133.89,133.9,0,84.48,50.89,134.39,128.46,134.39,28.16,0,47.43-4,57.31-8.9V709.8h-67.69V675.22h109.69Z"/><path class="cls-6" d="M1696.16,728.58c0,88.44-61.27,127-119.08,127-64.72,0-114.62-47.44-114.62-123,0-80,52.37-127,118.58-127C1649.71,605.55,1696.16,655.45,1696.16,728.58Zm-189.73,2.47c0,52.37,30.14,91.9,72.63,91.9,41.5,0,72.63-39,72.63-92.89,0-40.51-20.26-91.9-71.64-91.9S1506.43,685.59,1506.43,731.05Z"/><path class="cls-6" d="M1967.39,728.58c0,88.44-61.26,127-119.07,127-64.72,0-114.62-47.44-114.62-123,0-80,52.37-127,118.57-127C1921,605.55,1967.39,655.45,1967.39,728.58Zm-189.72,2.47c0,52.37,30.14,91.9,72.63,91.9,41.5,0,72.63-39,72.63-92.89,0-40.51-20.26-91.9-71.64-91.9S1777.67,685.59,1777.67,731.05Z"/><path class="cls-6" d="M2228.26,611c-1,17.29-2,36.56-2,65.71V815.54c0,54.84-10.87,88.44-34.09,109.19-23.22,21.74-56.82,28.65-87,28.65-28.65,0-60.27-6.91-79.54-19.76l10.87-33.1c15.81,9.88,40.51,18.77,70.15,18.77,44.47,0,77.08-23.22,77.08-83.5V809.11h-1c-13.34,22.24-39,40-76.09,40-59.28,0-101.78-50.39-101.78-116.6,0-81,52.87-127,107.71-127,41.51,0,64.23,21.74,74.61,41.51h1l2-36.07Zm-45,94.37c0-7.41-.5-13.84-2.47-19.77-7.91-25.19-29.16-46-60.78-46-41.5,0-71.14,35.08-71.14,90.42,0,46.94,23.71,86,70.65,86,26.68,0,50.89-16.8,60.28-44.47a75.65,75.65,0,0,0,3.46-23.22Z"/><path class="cls-6" d="M2298.4,499.33h43.48V850.12H2298.4Z"/><path class="cls-6" d="M2439.21,738.46c1,58.8,38.54,83,82,83,31.12,0,49.9-5.43,66.2-12.35l7.41,31.13c-15.31,6.92-41.5,14.82-79.54,14.82-73.62,0-117.59-48.42-117.59-120.55s42.49-129,112.15-129c78.06,0,98.82,68.68,98.82,112.65a162.49,162.49,0,0,1-1.49,20.26Zm127.47-31.13c.49-27.66-11.36-70.65-60.28-70.65-44,0-63.24,40.51-66.7,70.65Z"/><path class="cls-6" d="M2768.74,521.07a497.86,497.86,0,0,1,82.51-6.43c42.49,0,73.62,9.89,93.38,27.67,18.28,15.81,29.15,40,29.15,69.67,0,30.14-8.89,53.85-25.69,71.14-22.73,24.21-59.79,36.57-101.78,36.57-12.85,0-24.7-.5-34.59-3v133.4h-43Zm43,160.57c9.39,2.47,21.25,3.46,35.58,3.46,51.88,0,83.5-25.2,83.5-71.15,0-44-31.13-65.21-78.56-65.21-18.78,0-33.11,1.48-40.52,3.45Z"/><path class="cls-6" d="M3027.63,499.33h43.48V850.12h-43.48Z"/><path class="cls-6" d="M3276.64,850.12,3273.18,820h-1.48c-13.34,18.78-39,35.58-73.12,35.58-48.43,0-73.13-34.1-73.13-68.68,0-57.81,51.39-89.43,143.78-88.93v-5c0-19.76-5.44-55.33-54.35-55.33-22.23,0-45.45,6.92-62.25,17.78l-9.89-28.65c19.77-12.85,48.42-21.25,78.56-21.25,73.13,0,90.91,49.9,90.91,97.83v89.43c0,20.75,1,41,4,57.31Zm-6.42-122c-47.44-1-101.29,7.42-101.29,53.86,0,28.16,18.77,41.5,41,41.5,31.13,0,50.89-19.76,57.8-40a45.19,45.19,0,0,0,2.48-13.83Z"/><path class="cls-6" d="M3394.22,611l52.38,141.3c5.43,15.81,11.36,34.59,15.31,48.92h1c4.45-14.33,9.39-32.61,15.32-49.9L3525.65,611h45.95l-65.22,170.45c-31.13,82-52.37,124-82,149.71-21.24,18.77-42.49,26.18-53.36,28.16l-10.87-36.56a115.11,115.11,0,0,0,38-21.25c11.85-9.38,26.68-26.18,36.56-48.41,2-4.45,3.46-7.91,3.46-10.38s-1-5.93-3-11.36L3346.79,611Z"/></svg>