<svg id="Layer_1" data-name="Layer 1" xmlns="http://www.w3.org/2000/svg" viewBox="0 0 119.54 120.02"><defs><style>.cls-1{fill:#fff;}.cls-2{fill:#1a1a1a;}</style></defs><rect class="cls-1" x="-0.02" y="0.27" width="119.57" height="120.02" rx="8.93"/><rect class="cls-2" x="8.55" y="8.84" width="28.81" height="28.81"/><polygon class="cls-1" points="37.35 8.84 53.81 8.84 53.81 12.96 57.93 12.96 57.93 8.84 66.16 8.84 66.16 12.96 62.05 12.96 62.05 17.07 57.93 17.07 57.93 21.19 62.05 21.19 62.05 25.31 57.93 25.31 57.93 29.42 53.81 29.42 53.81 33.54 49.7 33.54 49.7 25.31 53.81 25.31 53.81 21.19 49.7 21.19 49.7 12.96 41.47 12.96 41.47 37.65 45.58 37.65 45.58 33.54 49.7 33.54 49.7 41.77 29.12 41.77 29.12 45.88 25.01 45.88 25.01 50 16.78 50 16.78 45.88 20.89 45.88 20.89 41.77 16.78 41.77 16.78 45.88 8.55 45.88 8.55 37.65 37.35 37.65 37.35 8.84"/><rect class="cls-2" x="53.81" y="8.84" width="4.12" height="4.12"/><rect class="cls-2" x="66.16" y="8.84" width="4.11" height="4.12"/><polygon class="cls-1" points="70.28 8.84 82.62 8.84 82.62 37.65 111.43 37.65 111.43 45.88 107.31 45.88 107.31 41.77 86.74 41.77 86.74 45.88 82.62 45.88 82.62 41.77 74.39 41.77 74.39 45.88 78.51 45.88 78.51 54.11 82.62 54.11 82.62 66.46 90.85 66.46 90.85 58.23 94.97 58.23 94.97 74.69 90.85 74.69 90.85 70.58 86.74 70.58 86.74 74.69 78.51 74.69 78.51 58.23 74.39 58.23 74.39 70.58 66.16 70.58 66.16 74.69 62.05 74.69 62.05 70.58 57.93 70.58 57.93 66.46 49.7 66.46 49.7 70.58 45.58 70.58 45.58 66.46 41.47 66.46 41.47 62.34 37.35 62.34 37.35 58.23 29.12 58.23 29.12 62.34 25.01 62.34 25.01 58.23 20.89 58.23 20.89 62.34 25.01 62.34 25.01 66.46 29.12 66.46 29.12 70.58 25.01 70.58 25.01 74.69 8.55 74.69 8.55 70.58 20.89 70.58 20.89 66.46 16.78 66.46 16.78 62.34 12.66 62.34 12.66 66.46 8.55 66.46 8.55 58.23 16.78 58.23 16.78 54.11 29.12 54.11 29.12 45.88 41.47 45.88 41.47 50 45.58 50 45.58 54.11 53.81 54.11 53.81 58.23 49.7 58.23 49.7 62.34 57.93 62.34 57.93 50 62.05 50 62.05 58.23 66.16 58.23 66.16 62.34 62.05 62.34 62.05 66.46 70.28 66.46 70.28 58.23 66.16 58.23 66.16 54.11 74.39 54.11 74.39 50 66.16 50 66.16 37.65 70.28 37.65 70.28 25.31 66.16 25.31 66.16 21.19 62.05 21.19 62.05 17.07 66.16 17.07 66.16 12.96 70.28 12.96 70.28 8.84"/><rect class="cls-2" x="82.62" y="8.84" width="28.81" height="28.81"/><rect class="cls-1" x="12.66" y="12.96" width="20.58" height="20.58"/><polygon class="cls-2" points="41.47 12.96 49.7 12.96 49.7 21.19 45.58 21.19 45.58 25.31 49.7 25.31 49.7 33.54 45.58 33.54 45.58 37.65 41.47 37.65 41.47 12.96"/><rect class="cls-2" x="62.05" y="12.96" width="4.12" height="4.12"/><rect class="cls-2" x="74.39" y="12.96" width="4.11" height="16.46"/><rect class="cls-1" x="86.74" y="12.96" width="20.58" height="20.58"/><rect class="cls-2" x="16.78" y="17.07" width="12.35" height="12.35"/><rect class="cls-2" x="57.93" y="17.07" width="4.11" height="4.12"/><rect class="cls-2" x="90.85" y="17.07" width="12.35" height="12.35"/><rect class="cls-1" x="45.58" y="21.19" width="4.12" height="4.12"/><rect class="cls-2" x="49.7" y="21.19" width="4.11" height="4.12"/><polygon class="cls-2" points="62.05 21.19 66.16 21.19 66.16 25.31 70.28 25.31 70.28 37.65 66.16 37.65 66.16 33.54 62.05 33.54 62.05 29.42 57.93 29.42 57.93 25.31 62.05 25.31 62.05 21.19"/><rect class="cls-2" x="53.81" y="29.42" width="4.12" height="4.11"/><rect class="cls-1" x="57.93" y="29.42" width="4.11" height="4.11"/><polygon class="cls-2" points="49.7 33.54 53.81 33.54 53.81 37.65 57.93 37.65 57.93 33.54 62.05 33.54 62.05 37.65 66.16 37.65 66.16 50 74.39 50 74.39 54.11 66.16 54.11 66.16 58.23 62.05 58.23 62.05 50 57.93 50 57.93 62.34 49.7 62.34 49.7 58.23 53.81 58.23 53.81 54.11 45.58 54.11 45.58 50 49.7 50 49.7 45.88 62.05 45.88 62.05 41.77 49.7 41.77 49.7 33.54"/><rect class="cls-1" x="53.81" y="33.54" width="4.12" height="4.12"/><rect class="cls-1" x="62.05" y="33.54" width="4.12" height="4.12"/><rect class="cls-2" x="74.39" y="33.54" width="4.11" height="4.12"/><rect class="cls-2" x="16.78" y="41.77" width="4.11" height="4.12"/><polygon class="cls-2" points="29.12 41.77 49.7 41.77 49.7 45.88 45.58 45.88 45.58 50 41.47 50 41.47 45.88 29.12 45.88 29.12 41.77"/><rect class="cls-1" x="49.7" y="41.77" width="12.35" height="4.12"/><polygon class="cls-2" points="74.39 41.77 82.62 41.77 82.62 45.88 86.74 45.88 86.74 41.77 107.31 41.77 107.31 45.88 103.2 45.88 103.2 54.11 99.08 54.11 99.08 62.34 103.2 62.34 103.2 70.58 99.08 70.58 99.08 78.81 103.2 78.81 103.2 82.92 94.97 82.92 94.97 91.15 99.08 91.15 99.08 95.27 103.2 95.27 103.2 99.38 111.43 99.38 111.43 103.5 90.85 103.5 90.85 99.38 94.97 99.38 94.97 95.27 90.85 95.27 90.85 99.38 86.74 99.38 86.74 95.27 82.62 95.27 82.62 107.61 99.08 107.61 99.08 111.73 66.16 111.73 66.16 107.61 74.39 107.61 74.39 103.5 70.28 103.5 70.28 91.15 74.39 91.15 74.39 87.04 66.16 87.04 66.16 78.81 62.05 78.81 62.05 74.69 66.16 74.69 66.16 70.58 74.39 70.58 74.39 58.23 78.51 58.23 78.51 74.69 86.74 74.69 86.74 70.58 90.85 70.58 90.85 74.69 94.97 74.69 94.97 58.23 90.85 58.23 90.85 66.46 82.62 66.46 82.62 54.11 78.51 54.11 78.51 45.88 74.39 45.88 74.39 41.77"/><polygon class="cls-2" points="8.55 45.88 16.78 45.88 16.78 50 25.01 50 25.01 45.88 29.12 45.88 29.12 54.11 16.78 54.11 16.78 58.23 8.55 58.23 8.55 54.11 12.66 54.11 12.66 50 8.55 50 8.55 45.88"/><rect class="cls-1" x="45.58" y="45.88" width="4.12" height="4.12"/><polygon class="cls-1" points="90.85 45.88 94.97 45.88 94.97 54.11 86.74 54.11 86.74 50 90.85 50 90.85 45.88"/><rect class="cls-1" x="103.2" y="45.88" width="4.12" height="8.23"/><rect class="cls-2" x="107.32" y="45.88" width="4.12" height="8.23"/><rect class="cls-1" x="8.55" y="50" width="4.12" height="4.11"/><rect class="cls-2" x="33.24" y="50" width="4.12" height="4.11"/><polygon class="cls-1" points="99.08 54.11 103.2 54.11 103.2 58.23 107.31 58.23 107.31 70.58 111.43 70.58 111.43 82.92 107.31 82.92 107.31 87.04 103.2 87.04 103.2 91.15 107.31 91.15 107.31 87.04 111.43 87.04 111.43 99.38 103.2 99.38 103.2 95.27 99.08 95.27 99.08 91.15 94.97 91.15 94.97 82.92 103.2 82.92 103.2 78.81 107.31 78.81 107.31 74.69 103.2 74.69 103.2 78.81 99.08 78.81 99.08 70.58 103.2 70.58 103.2 62.34 99.08 62.34 99.08 54.11"/><rect class="cls-2" x="103.2" y="54.11" width="4.12" height="4.12"/><rect class="cls-1" x="107.32" y="54.11" width="4.12" height="4.12"/><rect class="cls-2" x="20.89" y="58.23" width="4.12" height="4.12"/><rect class="cls-2" x="29.12" y="58.23" width="8.23" height="4.12"/><polygon class="cls-2" points="66.16 58.23 70.28 58.23 70.28 66.46 62.05 66.46 62.05 62.34 66.16 62.34 66.16 58.23"/><rect class="cls-2" x="107.32" y="58.23" width="4.12" height="12.35"/><polygon class="cls-2" points="12.66 62.34 16.78 62.34 16.78 66.46 20.89 66.46 20.89 70.58 8.55 70.58 8.55 66.46 12.66 66.46 12.66 62.34"/><rect class="cls-2" x="25.01" y="62.34" width="4.12" height="4.12"/><rect class="cls-1" x="29.12" y="62.34" width="8.23" height="4.12"/><polygon class="cls-2" points="37.35 62.34 41.47 62.34 41.47 66.46 45.58 66.46 45.58 70.58 29.12 70.58 29.12 66.46 37.35 66.46 37.35 62.34"/><rect class="cls-2" x="49.7" y="66.46" width="8.23" height="4.12"/><rect class="cls-2" x="25.01" y="70.58" width="4.12" height="4.12"/><rect class="cls-1" x="29.12" y="70.58" width="16.46" height="4.12"/><polygon class="cls-2" points="45.58 70.58 49.7 70.58 49.7 78.81 45.58 78.81 45.58 82.92 49.7 82.92 49.7 87.04 45.58 87.04 45.58 91.15 41.47 91.15 41.47 78.81 29.12 78.81 29.12 74.69 45.58 74.69 45.58 70.58"/><polygon class="cls-1" points="49.7 70.58 57.93 70.58 57.93 74.69 53.81 74.69 53.81 87.04 49.7 87.04 49.7 82.92 45.58 82.92 45.58 78.81 49.7 78.81 49.7 70.58"/><rect class="cls-2" x="57.93" y="70.58" width="4.11" height="4.12"/><rect class="cls-2" x="8.55" y="74.69" width="16.46" height="4.12"/><polygon class="cls-1" points="25.01 74.69 29.12 74.69 29.12 78.81 41.47 78.81 41.47 91.15 45.58 91.15 45.58 87.04 49.7 87.04 49.7 91.15 53.81 91.15 53.81 95.27 49.7 95.27 49.7 99.38 41.47 99.38 41.47 103.5 49.7 103.5 49.7 107.61 45.58 107.61 45.58 111.73 37.35 111.73 37.35 82.92 8.55 82.92 8.55 78.81 25.01 78.81 25.01 74.69"/><polygon class="cls-2" points="53.81 74.69 57.93 74.69 57.93 91.15 66.16 91.15 66.16 99.38 62.05 99.38 62.05 103.5 66.16 103.5 66.16 107.61 57.93 107.61 57.93 103.5 53.81 103.5 53.81 107.61 49.7 107.61 49.7 103.5 41.47 103.5 41.47 99.38 49.7 99.38 49.7 95.27 53.81 95.27 53.81 91.15 49.7 91.15 49.7 87.04 53.81 87.04 53.81 74.69"/><polygon class="cls-1" points="57.93 74.69 62.05 74.69 62.05 78.81 66.16 78.81 66.16 87.04 74.39 87.04 74.39 91.15 70.28 91.15 70.28 103.5 74.39 103.5 74.39 107.61 66.16 107.61 66.16 103.5 62.05 103.5 62.05 99.38 66.16 99.38 66.16 91.15 57.93 91.15 57.93 74.69"/><rect class="cls-1" x="70.28" y="74.69" width="4.12" height="8.23"/><rect class="cls-2" x="103.2" y="74.69" width="4.12" height="4.12"/><rect class="cls-1" x="78.51" y="78.81" width="12.35" height="12.35"/><rect class="cls-2" x="8.55" y="82.92" width="28.81" height="28.81"/><rect class="cls-2" x="82.62" y="82.92" width="4.12" height="4.12"/><rect class="cls-2" x="107.32" y="82.92" width="4.12" height="4.12"/><rect class="cls-1" x="12.66" y="87.04" width="20.58" height="20.58"/><rect class="cls-2" x="103.2" y="87.04" width="4.12" height="4.12"/><rect class="cls-2" x="16.78" y="91.15" width="12.35" height="12.35"/><rect class="cls-1" x="74.39" y="95.27" width="4.11" height="4.12"/><polygon class="cls-1" points="82.62 95.27 86.74 95.27 86.74 99.38 90.85 99.38 90.85 103.5 111.43 103.5 111.43 107.61 107.31 107.61 107.31 111.73 99.08 111.73 99.08 107.61 82.62 107.61 82.62 95.27"/><rect class="cls-1" x="90.85" y="95.27" width="4.12" height="4.12"/><rect class="cls-1" x="53.81" y="103.5" width="4.12" height="4.12"/><rect class="cls-2" x="45.58" y="107.61" width="4.12" height="4.12"/><rect class="cls-1" x="49.7" y="107.61" width="4.11" height="4.12"/><rect class="cls-2" x="53.81" y="107.61" width="4.12" height="4.12"/><rect class="cls-1" x="57.93" y="107.61" width="8.23" height="4.12"/><rect class="cls-2" x="107.32" y="107.61" width="4.12" height="4.12"/></svg>