<svg id="圖層_1" data-name="圖層 1" xmlns="http://www.w3.org/2000/svg" xmlns:xlink="http://www.w3.org/1999/xlink" viewBox="0 0 305.3 74.67"><defs><style>.cls-1{fill:url(#未命名漸層_18);}.cls-2{fill:url(#未命名漸層_18-2);}</style><linearGradient id="未命名漸層_18" x1="124.23" y1="-9.23" x2="-5.65" y2="32.56" gradientUnits="userSpaceOnUse"><stop offset="0.46"/><stop offset="0.92" stop-color="#777" stop-opacity="0.53"/><stop offset="1" stop-color="#fff" stop-opacity="0"/></linearGradient><linearGradient id="未命名漸層_18-2" x1="134.23" y1="12.55" x2="-3.72" y2="56.93" xlink:href="#未命名漸層_18"/></defs><path class="cls-1" d="M58.53,3.45c-14.52,0-13.39,0-23.21,13.38H69.68c20.07,0,19.34-5.4,22.55-13.38Z"/><path class="cls-2" d="M26.22,33.49c4.23-5.4,5.88-7.44,15.25-7.44H77.94c-3.21,10.58-12.3,14.1-22.55,14.1H44.71c-8,0-14.19,1.54-21.11,9.09L3.88,72.42,19.09,45.71S25,35.09,26.22,33.49Z"/><path d="M111.13,3.53h16.6l-2,6.07h-9.93l-3.59,11.54h9.46l-2,6.07h-9.46l-6.21,19.62H97.38Z"/><path d="M134.4,35.18l-5.19,11.65h-6.9c.79-1.64,19.41-41.46,20.3-43.3h9.81l-6.93,43.3h-6.6l2-11.65Zm7.53-6.07c1.21-6.61,2.62-14.78,3.51-19.56h-.25c-1.39,3.84-5.16,12.82-8.06,19.56Z"/><path d="M165.44,35.27l-.32,1.16c-.94,3.48-.66,5.6,2.1,5.6,2.34,0,3.73-1.79,4.76-5.21,1.16-3.89.91-6.28-2.68-10.88-4.08-5.21-5.06-8-3.32-14s5.41-9,10.9-9c8.54,0,8.78,6.21,7.37,11.34l-.24.85h-6.59l.24-.86c.87-3.19,1.14-5.84-1.49-5.84-1.95,0-3.1,1.32-3.8,3.93-.82,3.06-.51,4.94,2.19,8.47,5.1,6.61,5.85,10.39,3.91,16.63-2.06,6.54-5.72,10-12.43,10-7.59,0-9.48-4.7-7.41-11.52l.21-.68Z"/><path d="M201.7,9.6h-6.64L197,3.53h19.88L214.94,9.6h-6.69l-11.8,37.23H189.9Z"/><path d="M236.24,26.82H227l-4.38,14h11.18l-2.76,6H214.14l13.75-43.3H244.2l-1.94,6H232.5L229,20.81h9.24Z"/><path d="M252,35.27l-.32,1.16c-.94,3.48-.66,5.6,2.1,5.6,2.34,0,3.73-1.79,4.76-5.21,1.15-3.89.9-6.28-2.69-10.88-4.07-5.21-5.05-8-3.31-14s5.41-9,10.9-9c8.53,0,8.78,6.21,7.36,11.34l-.23.85H264l.23-.86c.88-3.19,1.14-5.84-1.49-5.84-1.94,0-3.09,1.32-3.79,3.93-.82,3.06-.51,4.94,2.18,8.47C266.21,27.4,267,31.18,265,37.42c-2.06,6.54-5.72,10-12.43,10-7.59,0-9.48-4.7-7.41-11.52l.21-.68Z"/><path d="M288.25,9.6H281.6l1.95-6.07h19.88L301.48,9.6H294.8L283,46.83h-6.55Z"/></svg>