<svg width="69" height="69" viewBox="0 0 69 69" fill="none" xmlns="http://www.w3.org/2000/svg">
<circle cx="34.5" cy="34.5" r="34.5" fill="#EDD603"/>
<path d="M34.942 31.6401C34.5314 31.6401 34.1869 31.4884 33.9087 31.185C33.6304 30.8817 33.4917 30.5067 33.4927 30.0601V26.9001H30.5942C30.1835 26.9001 29.8391 26.7484 29.5608 26.445C29.2826 26.1416 29.1439 25.7667 29.1449 25.32C29.1449 24.8724 29.284 24.4969 29.5623 24.1935C29.8405 23.8901 30.1845 23.739 30.5942 23.74H33.4927V20.58C33.4927 20.1323 33.6318 19.7568 33.9101 19.4535C34.1884 19.1501 34.5323 18.999 34.942 19C35.3526 19 35.6971 19.1517 35.9753 19.455C36.2536 19.7584 36.3922 20.1334 36.3913 20.58V23.74H39.2898C39.7004 23.74 40.0449 23.8917 40.3231 24.1951C40.6014 24.4984 40.74 24.8734 40.7391 25.32C40.7391 25.7677 40.5999 26.1432 40.3217 26.4466C40.0434 26.75 39.6995 26.9011 39.2898 26.9001H36.3913V30.0601C36.3913 30.5077 36.2521 30.8833 35.9739 31.1866C35.6956 31.49 35.3516 31.6411 34.942 31.6401ZM27.6956 52.1802C26.8985 52.1802 26.2159 51.8705 25.6478 51.2512C25.0797 50.6318 24.7961 49.8881 24.7971 49.0202C24.7971 48.1512 25.0811 47.407 25.6493 46.7876C26.2174 46.1683 26.8995 45.8591 27.6956 45.8602C28.4927 45.8602 29.1753 46.1698 29.7434 46.7892C30.3116 47.4086 30.5951 48.1522 30.5942 49.0202C30.5942 49.8892 30.3101 50.6334 29.742 51.2527C29.1739 51.8721 28.4918 52.1813 27.6956 52.1802ZM42.1883 52.1802C41.3912 52.1802 40.7086 51.8705 40.1405 51.2512C39.5724 50.6318 39.2888 49.8881 39.2898 49.0202C39.2898 48.1512 39.5739 47.407 40.142 46.7876C40.7101 46.1683 41.3922 45.8591 42.1883 45.8602C42.9854 45.8602 43.668 46.1698 44.2362 46.7892C44.8043 47.4086 45.0878 48.1522 45.0869 49.0202C45.0869 49.8892 44.8028 50.6334 44.2347 51.2527C43.6666 51.8721 42.9845 52.1813 42.1883 52.1802ZM27.6956 44.2802C26.5845 44.2802 25.7449 43.7598 25.1768 42.7191C24.6087 41.6784 24.6029 40.6451 25.1594 39.6191L27.1159 35.7481L21.8985 23.74H20.4493C20.0386 23.74 19.6942 23.5884 19.4159 23.285C19.1377 22.9816 18.999 22.6066 19 22.16C19 21.7124 19.1391 21.3368 19.4174 21.0335C19.6957 20.7301 20.0396 20.579 20.4493 20.58H22.8043C23.07 20.58 23.3237 20.659 23.5652 20.817C23.8068 20.975 23.9879 21.1989 24.1087 21.4885L29.942 34.8001H40.0869L45.268 24.5695C45.3888 24.3062 45.5642 24.1019 45.7941 23.9565C46.0241 23.8111 46.2714 23.739 46.5361 23.74C47.0917 23.74 47.5086 24.0034 47.7869 24.53C48.0651 25.0567 48.0709 25.5834 47.8043 26.11L42.6231 36.3011C42.3574 36.8278 42.0072 37.236 41.5724 37.5256C41.1376 37.8153 40.6424 37.9601 40.0869 37.9601H29.2898L27.6956 41.1201H43.6376C44.0482 41.1201 44.3927 41.2718 44.6709 41.5752C44.9492 41.8785 45.0878 42.2535 45.0869 42.7001C45.0869 43.1478 44.9477 43.5233 44.6695 43.8267C44.3912 44.1301 44.0473 44.2812 43.6376 44.2802H27.6956Z" fill="white"/>
</svg>
