<svg xmlns="http://www.w3.org/2000/svg" xmlns:xlink="http://www.w3.org/1999/xlink" viewBox="0 0 816.77 500"><defs><style>.cls-1{fill:url(#未命名漸層_57);}.cls-2{fill:#a8a8a8;}.cls-3{isolation:isolate;}.cls-4{fill:url(#linear-gradient);}.cls-12,.cls-16,.cls-19,.cls-23,.cls-27,.cls-30,.cls-33,.cls-36,.cls-39,.cls-42,.cls-45,.cls-49,.cls-5,.cls-52,.cls-56,.cls-59,.cls-62,.cls-65,.cls-68,.cls-71,.cls-74,.cls-8{stroke:#fff;stroke-miterlimit:10;stroke-width:0.25px;}.cls-5{fill:url(#未命名漸層_12);}.cls-6{fill:url(#未命名漸層_20);}.cls-7{fill:url(#linear-gradient-2);}.cls-8{fill:url(#未命名漸層_12-2);}.cls-9{fill:url(#未命名漸層_20-2);}.cls-10{fill:#2dd7a2;}.cls-11{fill:url(#linear-gradient-3);}.cls-12{fill:url(#未命名漸層_12-3);}.cls-13{fill:url(#未命名漸層_20-3);}.cls-14{fill:#7a7a7a;}.cls-15{fill:url(#linear-gradient-4);}.cls-16{fill:url(#未命名漸層_12-4);}.cls-17{fill:url(#未命名漸層_20-4);}.cls-18{fill:url(#linear-gradient-5);}.cls-19{fill:url(#未命名漸層_12-5);}.cls-20{fill:url(#未命名漸層_20-5);}.cls-21{fill:#ff8222;}.cls-22{fill:url(#linear-gradient-6);}.cls-23{fill:url(#未命名漸層_12-6);}.cls-24{fill:url(#未命名漸層_20-6);}.cls-25{fill:#00a5ff;}.cls-26{fill:url(#linear-gradient-7);}.cls-27{fill:url(#未命名漸層_12-7);}.cls-28{fill:url(#未命名漸層_20-7);}.cls-29{fill:url(#linear-gradient-8);}.cls-30{fill:url(#未命名漸層_12-8);}.cls-31{fill:url(#未命名漸層_20-8);}.cls-32{fill:url(#linear-gradient-9);}.cls-33{fill:url(#未命名漸層_12-9);}.cls-34{fill:url(#未命名漸層_20-9);}.cls-35{fill:url(#linear-gradient-10);}.cls-36{fill:url(#未命名漸層_12-10);}.cls-37{fill:url(#未命名漸層_20-10);}.cls-38{fill:url(#linear-gradient-11);}.cls-39{fill:url(#未命名漸層_12-11);}.cls-40{fill:url(#未命名漸層_20-11);}.cls-41{fill:url(#linear-gradient-12);}.cls-42{fill:url(#未命名漸層_12-12);}.cls-43{fill:url(#未命名漸層_20-12);}.cls-44{fill:url(#linear-gradient-13);}.cls-45{fill:url(#未命名漸層_12-13);}.cls-46{fill:url(#未命名漸層_20-13);}.cls-47{fill:#f42776;}.cls-48{fill:url(#linear-gradient-14);}.cls-49{fill:url(#未命名漸層_12-14);}.cls-50{fill:url(#未命名漸層_20-14);}.cls-51{fill:url(#linear-gradient-15);}.cls-52{fill:url(#未命名漸層_12-15);}.cls-53{fill:url(#未命名漸層_20-15);}.cls-54{fill:#757575;}.cls-55{fill:url(#linear-gradient-16);}.cls-56{fill:url(#未命名漸層_12-16);}.cls-57{fill:url(#未命名漸層_20-16);}.cls-58{fill:url(#linear-gradient-17);}.cls-59{fill:url(#未命名漸層_12-17);}.cls-60{fill:url(#未命名漸層_20-17);}.cls-61{fill:url(#linear-gradient-18);}.cls-62{fill:url(#未命名漸層_12-18);}.cls-63{fill:url(#未命名漸層_20-18);}.cls-64{fill:url(#linear-gradient-19);}.cls-65{fill:url(#未命名漸層_12-19);}.cls-66{fill:url(#未命名漸層_20-19);}.cls-67{fill:url(#linear-gradient-20);}.cls-68{fill:url(#未命名漸層_12-20);}.cls-69{fill:url(#未命名漸層_20-20);}.cls-70{fill:url(#linear-gradient-21);}.cls-71{fill:url(#未命名漸層_12-21);}.cls-72{fill:url(#未命名漸層_20-21);}.cls-73{fill:url(#linear-gradient-22);}.cls-74{fill:url(#未命名漸層_12-22);}.cls-75{fill:url(#未命名漸層_20-22);}</style><linearGradient id="未命名漸層_57" x1="408.27" y1="508.82" x2="408.27" y2="-13.05" gradientUnits="userSpaceOnUse"><stop offset="0" stop-color="#3a3c40"/><stop offset="0.13" stop-color="#494a4e" stop-opacity="0.98"/><stop offset="0.38" stop-color="#717072" stop-opacity="0.94"/><stop offset="0.56" stop-color="#949191" stop-opacity="0.9"/><stop offset="0.71" stop-color="#b7b5b5" stop-opacity="0.61"/><stop offset="1" stop-color="#fff" stop-opacity="0"/></linearGradient><linearGradient id="linear-gradient" x1="53.99" y1="292.45" x2="172.26" y2="250.13" gradientTransform="matrix(-1, 0, 0, 1, 760.94, 0)" gradientUnits="userSpaceOnUse"><stop offset="0" stop-color="#a3aeeb"/><stop offset="0.15" stop-color="#b1bced"/><stop offset="0.72" stop-color="#e0ecf4"/><stop offset="1" stop-color="#f2fff7"/></linearGradient><linearGradient id="未命名漸層_12" x1="53.99" y1="292.45" x2="172.26" y2="250.13" gradientTransform="matrix(-1, 0, 0, 1, 760.94, 0)" gradientUnits="userSpaceOnUse"><stop offset="0" stop-color="#969696"/><stop offset="0.32" stop-color="#bcbcbc"/><stop offset="0.78" stop-color="#ececec"/><stop offset="1" stop-color="#fff"/></linearGradient><linearGradient id="未命名漸層_20" x1="84.36" y1="276.88" x2="135.63" y2="252.73" gradientTransform="matrix(-1, 0, 0, 1, 760.94, 0)" gradientUnits="userSpaceOnUse"><stop offset="0" stop-color="#f7f7f7"/><stop offset="0.13" stop-color="#fafafa"/><stop offset="0.55" stop-color="#fff"/><stop offset="0.78" stop-color="#fbfbfb"/><stop offset="1" stop-color="#f0f0f0"/></linearGradient><linearGradient id="linear-gradient-2" x1="234.12" y1="246.9" x2="352.38" y2="204.58" xlink:href="#linear-gradient"/><linearGradient id="未命名漸層_12-2" x1="234.12" y1="246.9" x2="352.38" y2="204.58" xlink:href="#未命名漸層_12"/><linearGradient id="未命名漸層_20-2" x1="264.49" y1="231.32" x2="315.75" y2="207.17" xlink:href="#未命名漸層_20"/><linearGradient id="linear-gradient-3" x1="71.05" y1="184.82" x2="189.31" y2="142.5" xlink:href="#linear-gradient"/><linearGradient id="未命名漸層_12-3" x1="71.05" y1="184.82" x2="189.31" y2="142.5" xlink:href="#未命名漸層_12"/><linearGradient id="未命名漸層_20-3" x1="101.42" y1="169.25" x2="152.68" y2="145.1" xlink:href="#未命名漸層_20"/><linearGradient id="linear-gradient-4" x1="-14.19" y1="156.65" x2="104.08" y2="114.33" xlink:href="#linear-gradient"/><linearGradient id="未命名漸層_12-4" x1="-14.19" y1="156.65" x2="104.08" y2="114.33" xlink:href="#未命名漸層_12"/><linearGradient id="未命名漸層_20-4" x1="16.18" y1="141.08" x2="67.45" y2="116.93" xlink:href="#未命名漸層_20"/><linearGradient id="linear-gradient-5" x1="243.79" y1="182.09" x2="362.06" y2="139.77" xlink:href="#linear-gradient"/><linearGradient id="未命名漸層_12-5" x1="243.79" y1="182.09" x2="362.06" y2="139.77" xlink:href="#未命名漸層_12"/><linearGradient id="未命名漸層_20-5" x1="274.16" y1="166.52" x2="325.43" y2="142.37" xlink:href="#未命名漸層_20"/><linearGradient id="linear-gradient-6" x1="153.91" y1="270.65" x2="259.47" y2="232.88" xlink:href="#linear-gradient"/><linearGradient id="未命名漸層_12-6" x1="153.91" y1="270.65" x2="259.47" y2="232.88" xlink:href="#未命名漸層_12"/><linearGradient id="未命名漸層_20-6" x1="181.02" y1="256.75" x2="226.77" y2="235.2" xlink:href="#未命名漸層_20"/><linearGradient id="linear-gradient-7" x1="-36.48" y1="321.22" x2="69.08" y2="283.45" xlink:href="#linear-gradient"/><linearGradient id="未命名漸層_12-7" x1="-36.48" y1="321.22" x2="69.08" y2="283.45" xlink:href="#未命名漸層_12"/><linearGradient id="未命名漸層_20-7" x1="-9.37" y1="307.32" x2="36.39" y2="285.77" xlink:href="#未命名漸層_20"/><linearGradient id="linear-gradient-8" x1="195.69" y1="364.94" x2="301.25" y2="327.17" xlink:href="#linear-gradient"/><linearGradient id="未命名漸層_12-8" x1="195.69" y1="364.94" x2="301.25" y2="327.17" xlink:href="#未命名漸層_12"/><linearGradient id="未命名漸層_20-8" x1="222.8" y1="351.04" x2="268.55" y2="329.49" xlink:href="#未命名漸層_20"/><linearGradient id="linear-gradient-9" x1="218.93" y1="307.26" x2="324.49" y2="269.49" xlink:href="#linear-gradient"/><linearGradient id="未命名漸層_12-9" x1="218.93" y1="307.26" x2="324.49" y2="269.49" xlink:href="#未命名漸層_12"/><linearGradient id="未命名漸層_20-9" x1="246.04" y1="293.36" x2="291.8" y2="271.81" xlink:href="#未命名漸層_20"/><linearGradient id="linear-gradient-10" x1="286.59" y1="347.77" x2="392.15" y2="310" xlink:href="#linear-gradient"/><linearGradient id="未命名漸層_12-10" x1="286.59" y1="347.77" x2="392.15" y2="310" xlink:href="#未命名漸層_12"/><linearGradient id="未命名漸層_20-10" x1="313.7" y1="333.87" x2="359.46" y2="312.32" xlink:href="#未命名漸層_20"/><linearGradient id="linear-gradient-11" x1="97.5" y1="235.48" x2="184.41" y2="204.38" xlink:href="#linear-gradient"/><linearGradient id="未命名漸層_12-11" x1="97.5" y1="235.48" x2="184.41" y2="204.38" xlink:href="#未命名漸層_12"/><linearGradient id="未命名漸層_20-11" x1="119.82" y1="224.03" x2="157.5" y2="206.29" xlink:href="#未命名漸層_20"/><linearGradient id="linear-gradient-12" x1="23.16" y1="217.25" x2="110.07" y2="186.15" xlink:href="#linear-gradient"/><linearGradient id="未命名漸層_12-12" x1="23.16" y1="217.25" x2="110.07" y2="186.15" xlink:href="#未命名漸層_12"/><linearGradient id="未命名漸層_20-12" x1="45.48" y1="205.81" x2="83.16" y2="188.06" xlink:href="#未命名漸層_20"/><linearGradient id="linear-gradient-13" x1="127.53" y1="326.31" x2="232.45" y2="288.77" xlink:href="#linear-gradient"/><linearGradient id="未命名漸層_12-13" x1="127.53" y1="326.31" x2="232.45" y2="288.77" xlink:href="#未命名漸層_12"/><linearGradient id="未命名漸層_20-13" x1="154.48" y1="312.5" x2="199.96" y2="291.07" xlink:href="#未命名漸層_20"/><linearGradient id="linear-gradient-14" x1="-10.19" y1="258.88" x2="76.72" y2="227.78" xlink:href="#linear-gradient"/><linearGradient id="未命名漸層_12-14" x1="-10.19" y1="258.88" x2="76.72" y2="227.78" xlink:href="#未命名漸層_12"/><linearGradient id="未命名漸層_20-14" x1="12.13" y1="247.43" x2="49.8" y2="229.69" xlink:href="#未命名漸層_20"/><linearGradient id="linear-gradient-15" x1="166.53" y1="212.35" x2="268.88" y2="175.72" xlink:href="#linear-gradient"/><linearGradient id="未命名漸層_12-15" x1="166.53" y1="212.35" x2="268.88" y2="175.72" xlink:href="#未命名漸層_12"/><linearGradient id="未命名漸層_20-15" x1="192.82" y1="198.87" x2="237.18" y2="177.97" xlink:href="#未命名漸層_20"/><linearGradient id="linear-gradient-16" x1="37.51" y1="354.47" x2="139.86" y2="317.84" xlink:href="#linear-gradient"/><linearGradient id="未命名漸層_12-16" x1="37.51" y1="354.47" x2="139.86" y2="317.84" xlink:href="#未命名漸層_12"/><linearGradient id="未命名漸層_20-16" x1="63.79" y1="340.99" x2="108.16" y2="320.09" xlink:href="#未命名漸層_20"/><linearGradient id="linear-gradient-17" x1="71.93" y1="117.72" x2="174.28" y2="81.09" xlink:href="#linear-gradient"/><linearGradient id="未命名漸層_12-17" x1="71.93" y1="117.72" x2="174.28" y2="81.09" xlink:href="#未命名漸層_12"/><linearGradient id="未命名漸層_20-17" x1="98.22" y1="104.24" x2="142.58" y2="83.34" xlink:href="#未命名漸層_20"/><linearGradient id="linear-gradient-18" x1="-97.02" y1="279.74" x2="5.33" y2="243.11" xlink:href="#linear-gradient"/><linearGradient id="未命名漸層_12-18" x1="-97.02" y1="279.74" x2="5.33" y2="243.11" xlink:href="#未命名漸層_12"/><linearGradient id="未命名漸層_20-18" x1="-70.74" y1="266.26" x2="-26.37" y2="245.36" xlink:href="#未命名漸層_20"/><linearGradient id="linear-gradient-19" x1="-63.87" y1="200.45" x2="38.48" y2="163.82" xlink:href="#linear-gradient"/><linearGradient id="未命名漸層_12-19" x1="-63.87" y1="200.45" x2="38.48" y2="163.82" xlink:href="#未命名漸層_12"/><linearGradient id="未命名漸層_20-19" x1="-37.59" y1="186.97" x2="6.78" y2="166.07" xlink:href="#未命名漸層_20"/><linearGradient id="linear-gradient-20" x1="325.71" y1="220.72" x2="419.03" y2="187.33" xlink:href="#linear-gradient"/><linearGradient id="未命名漸層_12-20" x1="325.71" y1="220.72" x2="419.03" y2="187.33" xlink:href="#未命名漸層_12"/><linearGradient id="未命名漸層_20-20" x1="349.68" y1="208.43" x2="390.13" y2="189.38" xlink:href="#未命名漸層_20"/><linearGradient id="linear-gradient-21" x1="312.99" y1="285.36" x2="415.34" y2="248.73" xlink:href="#linear-gradient"/><linearGradient id="未命名漸層_12-21" x1="312.99" y1="285.36" x2="415.34" y2="248.73" xlink:href="#未命名漸層_12"/><linearGradient id="未命名漸層_20-21" x1="339.27" y1="271.88" x2="383.64" y2="250.98" xlink:href="#未命名漸層_20"/><linearGradient id="linear-gradient-22" x1="155.1" y1="150.04" x2="257.45" y2="113.41" xlink:href="#linear-gradient"/><linearGradient id="未命名漸層_12-22" x1="155.1" y1="150.04" x2="257.45" y2="113.41" xlink:href="#未命名漸層_12"/><linearGradient id="未命名漸層_20-22" x1="181.39" y1="136.56" x2="225.75" y2="115.66" xlink:href="#未命名漸層_20"/></defs><g id="OBJECTS"><rect class="cls-1" x="-11.68" y="-13.05" width="839.91" height="521.87"/><path class="cls-2" d="M597.86,268.48c-3.24,1.88-3.26,4.92,0,6.79l44.78,26a12.92,12.92,0,0,0,11.71,0l45.06-26c3.25-1.87,3.27-4.91,0-6.79l-44.77-26a12.91,12.91,0,0,0-11.72,0Z"/><g class="cls-3"><path class="cls-4" d="M606.78,266.5l36.88,21.43a10.59,10.59,0,0,0,9.65,0l37.11-21.42a3.43,3.43,0,0,0,2-2.82l.06,5.34a3.43,3.43,0,0,1-2,2.82l-37.11,21.42a10.59,10.59,0,0,1-9.65,0l-36.87-21.43a3.37,3.37,0,0,1-2-2.77l-.07-5.34A3.37,3.37,0,0,0,606.78,266.5Z"/><path class="cls-5" d="M606.78,266.5l36.88,21.43a10.59,10.59,0,0,0,9.65,0l37.11-21.42a3.43,3.43,0,0,0,2-2.82l.06,5.34a3.43,3.43,0,0,1-2,2.82l-37.11,21.42a10.59,10.59,0,0,1-9.65,0l-36.87-21.43a3.37,3.37,0,0,1-2-2.77l-.07-5.34A3.37,3.37,0,0,0,606.78,266.5Z"/><path class="cls-6" d="M606.81,260.92c-2.67,1.54-2.68,4,0,5.58l36.88,21.43a10.59,10.59,0,0,0,9.65,0l37.11-21.42c2.67-1.55,2.69-4.05,0-5.59l-36.87-21.43a10.59,10.59,0,0,0-9.65,0Z"/></g><path class="cls-2" d="M632.91,258.71c-2.12,1.22-2.13,3.22,0,4.44a8.45,8.45,0,0,0,7.68,0,2.57,2.57,0,0,0,1.58-2.33l10.91-1.73a3.9,3.9,0,0,0,1,.73,6.35,6.35,0,0,0,1.27.56l-3,6.31a7.62,7.62,0,0,0-4,.91c-2.12,1.22-2.17,3.2-.07,4.42a8.52,8.52,0,0,0,7.68,0c2.11-1.22,2.12-3.22,0-4.44l-1-.45,3-6.4a7.64,7.64,0,0,0,3.77-.89c2.12-1.22,2.13-3.22,0-4.44a8.49,8.49,0,0,0-7.67,0,2.75,2.75,0,0,0-1.58,2.15l-11,1.76-.8-.6A8.49,8.49,0,0,0,632.91,258.71Z"/><path class="cls-2" d="M417.74,222.93c-3.25,1.87-3.27,4.91,0,6.78l44.77,26a12.94,12.94,0,0,0,11.72,0l45.06-26c3.25-1.87,3.26-4.91,0-6.78l-44.77-26a12.88,12.88,0,0,0-11.72,0Z"/><g class="cls-3"><path class="cls-7" d="M426.66,221l36.87,21.43a10.66,10.66,0,0,0,9.65,0L510.29,221a3.43,3.43,0,0,0,2-2.82l.07,5.34a3.43,3.43,0,0,1-2,2.82l-37.11,21.43a10.66,10.66,0,0,1-9.65,0l-36.88-21.43a3.38,3.38,0,0,1-2-2.78l-.06-5.34A3.38,3.38,0,0,0,426.66,221Z"/><path class="cls-8" d="M426.66,221l36.87,21.43a10.66,10.66,0,0,0,9.65,0L510.29,221a3.43,3.43,0,0,0,2-2.82l.07,5.34a3.43,3.43,0,0,1-2,2.82l-37.11,21.43a10.66,10.66,0,0,1-9.65,0l-36.88-21.43a3.38,3.38,0,0,1-2-2.78l-.06-5.34A3.38,3.38,0,0,0,426.66,221Z"/><path class="cls-9" d="M426.69,215.36c-2.67,1.54-2.69,4,0,5.59l36.87,21.43a10.66,10.66,0,0,0,9.65,0L510.29,221c2.68-1.55,2.69-4,0-5.59l-36.88-21.43a10.66,10.66,0,0,0-9.65,0Z"/></g><path class="cls-10" d="M458.71,212.38a17.05,17.05,0,0,1,15.49,0c.42.19,8.34,3.71,7.2,11.67a1.55,1.55,0,0,1-.83,1,4.1,4.1,0,0,1-1.79.48c-13.75.64-19.8-4-20.12-4.2C454.39,218.87,454.42,214.86,458.71,212.38Zm2.56,8a12.69,12.69,0,0,0,10.28,0l.47-.25c3.26-1.89,3.12-5-.43-6.77a12.69,12.69,0,0,0-10.28,0l-.46.25c-3.27,1.89-3.13,5,.42,6.77"/><path class="cls-2" d="M580.81,160.85c-3.25,1.88-3.27,4.91,0,6.79l44.77,26a12.94,12.94,0,0,0,11.72,0l45.06-26c3.25-1.87,3.26-4.91,0-6.79l-44.77-26a12.91,12.91,0,0,0-11.72,0Z"/><g class="cls-3"><path class="cls-11" d="M589.73,158.87,626.6,180.3a10.59,10.59,0,0,0,9.65,0l37.11-21.42a3.43,3.43,0,0,0,2-2.82l.07,5.34a3.43,3.43,0,0,1-2,2.82l-37.11,21.42a10.59,10.59,0,0,1-9.65,0l-36.88-21.43a3.37,3.37,0,0,1-2-2.77l-.06-5.34A3.37,3.37,0,0,0,589.73,158.87Z"/><path class="cls-12" d="M589.73,158.87,626.6,180.3a10.59,10.59,0,0,0,9.65,0l37.11-21.42a3.43,3.43,0,0,0,2-2.82l.07,5.34a3.43,3.43,0,0,1-2,2.82l-37.11,21.42a10.59,10.59,0,0,1-9.65,0l-36.88-21.43a3.37,3.37,0,0,1-2-2.77l-.06-5.34A3.37,3.37,0,0,0,589.73,158.87Z"/><path class="cls-13" d="M589.76,153.28c-2.67,1.55-2.69,4.05,0,5.59L626.6,180.3a10.59,10.59,0,0,0,9.65,0l37.11-21.42c2.68-1.55,2.69-4,0-5.59l-36.88-21.43a10.59,10.59,0,0,0-9.65,0Z"/></g><path class="cls-14" d="M627.15,147.74a2.24,2.24,0,0,0-.94.94l-2.54,5.42-2.54,5.42c-.72,1.56,1.73,3,4.41,2.56l9.37-1.45,9.37-1.45a4.54,4.54,0,0,0,1.62-.54c1.34-.77,1.51-2.1,0-3l-6.83-4-6.83-4A5.64,5.64,0,0,0,627.15,147.74Z"/><path class="cls-2" d="M666,132.68c-3.25,1.87-3.26,4.91,0,6.79l44.78,26a12.92,12.92,0,0,0,11.71,0l45.06-26c3.25-1.88,3.27-4.91,0-6.79l-44.77-26a12.94,12.94,0,0,0-11.72,0Z"/><g class="cls-3"><path class="cls-15" d="M675,130.7l36.88,21.43a10.66,10.66,0,0,0,9.65,0L758.6,130.7a3.4,3.4,0,0,0,2-2.81l.06,5.34a3.43,3.43,0,0,1-2,2.82l-37.11,21.42a10.59,10.59,0,0,1-9.65,0L675,136a3.37,3.37,0,0,1-2-2.77l-.07-5.34A3.37,3.37,0,0,0,675,130.7Z"/><path class="cls-16" d="M675,130.7l36.88,21.43a10.66,10.66,0,0,0,9.65,0L758.6,130.7a3.4,3.4,0,0,0,2-2.81l.06,5.34a3.43,3.43,0,0,1-2,2.82l-37.11,21.42a10.59,10.59,0,0,1-9.65,0L675,136a3.37,3.37,0,0,1-2-2.77l-.07-5.34A3.37,3.37,0,0,0,675,130.7Z"/><path class="cls-17" d="M675,125.11c-2.67,1.55-2.68,4,0,5.59l36.88,21.43a10.66,10.66,0,0,0,9.65,0L758.6,130.7c2.67-1.54,2.69-4,0-5.59l-36.87-21.43a10.62,10.62,0,0,0-9.65,0Z"/></g><path class="cls-10" d="M712.56,124.38c-1.17.68-1.19,1.78,0,2.45l8.71,5.07a4.69,4.69,0,0,0,4.24,0,1.3,1.3,0,0,0,0-2.45l-8.71-5.06A4.67,4.67,0,0,0,712.56,124.38Z"/><path class="cls-10" d="M726.6,121.88a1.29,1.29,0,0,0,0,2.45l3.88,2.25a4.64,4.64,0,0,0,4.23,0,1.29,1.29,0,0,0,0-2.45l-3.87-2.25A4.64,4.64,0,0,0,726.6,121.88Z"/><path class="cls-10" d="M697.1,126.07a1.29,1.29,0,0,0,0,2.45l15,8.69a4.64,4.64,0,0,0,4.23,0,1.29,1.29,0,0,0,0-2.45l-14.95-8.69A4.66,4.66,0,0,0,697.1,126.07Z"/><path class="cls-2" d="M408.06,158.12c-3.24,1.87-3.26,4.91,0,6.78l44.78,26a12.86,12.86,0,0,0,11.71,0l45.06-26c3.25-1.88,3.27-4.92,0-6.79l-44.77-26a12.94,12.94,0,0,0-11.72,0Z"/><g class="cls-3"><path class="cls-18" d="M417,156.14l36.88,21.43a10.66,10.66,0,0,0,9.65,0l37.11-21.43a3.43,3.43,0,0,0,2-2.81l.06,5.34a3.43,3.43,0,0,1-2,2.81l-37.11,21.43a10.66,10.66,0,0,1-9.65,0l-36.87-21.43a3.38,3.38,0,0,1-2-2.77l-.07-5.35A3.38,3.38,0,0,0,417,156.14Z"/><path class="cls-19" d="M417,156.14l36.88,21.43a10.66,10.66,0,0,0,9.65,0l37.11-21.43a3.43,3.43,0,0,0,2-2.81l.06,5.34a3.43,3.43,0,0,1-2,2.81l-37.11,21.43a10.66,10.66,0,0,1-9.65,0l-36.87-21.43a3.38,3.38,0,0,1-2-2.77l-.07-5.35A3.38,3.38,0,0,0,417,156.14Z"/><path class="cls-20" d="M417,150.55c-2.67,1.54-2.68,4,0,5.59l36.88,21.43a10.66,10.66,0,0,0,9.65,0l37.11-21.43c2.67-1.54,2.69-4,0-5.59l-36.87-21.43a10.66,10.66,0,0,0-9.65,0Z"/></g><path class="cls-21" d="M451.08,149c-2.16,1.25-2.18,3.27,0,4.52a8.68,8.68,0,0,0,6.14.65c-1.23,1.52-.68,3.65,1.44,5.62a10.88,10.88,0,0,0-5.28-.18c.61-.79.37-1.76-.76-2.41a5.81,5.81,0,0,0-5.29,0c-1.46.84-1.47,2.21,0,3.06a5.84,5.84,0,0,0,4.16.44c-1.1,1.37-.09,3.44,2.65,5l.21.12,7.1-4.09.82-.48,10-5.78.82-.47,7.09-4.1-.2-.13a12.57,12.57,0,0,0-8.68-1.55c.62-.79.37-1.76-.75-2.41a5.81,5.81,0,0,0-5.29,0c-1.47.85-1.47,2.22,0,3.06a5.84,5.84,0,0,0,4.16.45c-.68.84-.55,2,.28,3.06a17.13,17.13,0,0,0-9.68-.85c.91-1.18.54-2.6-1.11-3.56A8.58,8.58,0,0,0,451.08,149Z"/><path class="cls-2" d="M509.66,249.26c-2.89,1.67-2.91,4.38,0,6.05l40,23.23a11.55,11.55,0,0,0,10.46,0l40.22-23.22c2.9-1.68,2.91-4.39,0-6.06l-40-23.23a11.51,11.51,0,0,0-10.46,0Z"/><g class="cls-3"><path class="cls-22" d="M517.63,247.49l32.91,19.13a9.53,9.53,0,0,0,8.61,0l33.13-19.13a3,3,0,0,0,1.8-2.51l.06,4.77a3.06,3.06,0,0,1-1.8,2.51l-33.13,19.12a9.47,9.47,0,0,1-8.61,0l-32.91-19.12a3,3,0,0,1-1.77-2.48l-.06-4.77A3,3,0,0,0,517.63,247.49Z"/><path class="cls-23" d="M517.63,247.49l32.91,19.13a9.53,9.53,0,0,0,8.61,0l33.13-19.13a3,3,0,0,0,1.8-2.51l.06,4.77a3.06,3.06,0,0,1-1.8,2.51l-33.13,19.12a9.47,9.47,0,0,1-8.61,0l-32.91-19.12a3,3,0,0,1-1.77-2.48l-.06-4.77A3,3,0,0,0,517.63,247.49Z"/><path class="cls-24" d="M517.66,242.5c-2.39,1.38-2.4,3.61,0,5l32.91,19.13a9.53,9.53,0,0,0,8.61,0l33.13-19.13c2.39-1.38,2.4-3.61,0-5L559.4,223.38a9.49,9.49,0,0,0-8.62,0Z"/></g><path class="cls-25" d="M568.58,247c-1.12.65-1.12,1.69,0,2.33a4.44,4.44,0,0,0,4,0,1.23,1.23,0,0,0,0-2.33A4.43,4.43,0,0,0,568.58,247Z"/><path class="cls-25" d="M556.47,254a1.23,1.23,0,0,0,0,2.33,4.45,4.45,0,0,0,4,0,1.23,1.23,0,0,0,0-2.33A4.45,4.45,0,0,0,556.47,254Z"/><path class="cls-25" d="M554.07,234.46c-.44.26-.55.65-.25,1l.91,1-.17.06L538,246c-.9.52-.91,1.36,0,1.88l.14.08a2.71,2.71,0,0,0,.84.31l11,2.29a4.51,4.51,0,0,0,3-.39l9.77-5.64.25,0,3.45.15L552,253.09a.31.31,0,0,0,0,.59l1,.58a1.12,1.12,0,0,0,1,0l14.45-8.34c.89-.51,1.1-1.28.5-1.94a3.57,3.57,0,0,0-2.41-.88L564,243l-7.14-7.79,1.27-.74a.31.31,0,0,0,0-.58l-1-.58a1.1,1.1,0,0,0-1,0Z"/><path class="cls-2" d="M700.05,299.83c-2.9,1.67-2.91,4.38,0,6.05l40,23.23a11.52,11.52,0,0,0,10.45,0l40.23-23.23c2.9-1.67,2.91-4.38,0-6.05l-40-23.23a11.55,11.55,0,0,0-10.46,0Z"/><g class="cls-3"><path class="cls-26" d="M708,298.06l32.92,19.13a9.53,9.53,0,0,0,8.61,0l33.12-19.13a3,3,0,0,0,1.8-2.51l.06,4.76a3.08,3.08,0,0,1-1.8,2.52L749.6,322a9.47,9.47,0,0,1-8.61,0l-32.92-19.12a3.06,3.06,0,0,1-1.77-2.48l0-4.77A3,3,0,0,0,708,298.06Z"/><path class="cls-27" d="M708,298.06l32.92,19.13a9.53,9.53,0,0,0,8.61,0l33.12-19.13a3,3,0,0,0,1.8-2.51l.06,4.76a3.08,3.08,0,0,1-1.8,2.52L749.6,322a9.47,9.47,0,0,1-8.61,0l-32.92-19.12a3.06,3.06,0,0,1-1.77-2.48l0-4.77A3,3,0,0,0,708,298.06Z"/><path class="cls-28" d="M708,293.07c-2.38,1.38-2.4,3.61,0,5l32.92,19.13a9.53,9.53,0,0,0,8.61,0l33.12-19.13c2.39-1.38,2.4-3.61,0-5l-32.91-19.13a9.5,9.5,0,0,0-8.61,0Z"/></g><path class="cls-25" d="M759,297.55a1.23,1.23,0,0,0,0,2.33,4.45,4.45,0,0,0,4,0,1.23,1.23,0,0,0,0-2.33A4.45,4.45,0,0,0,759,297.55Z"/><path class="cls-25" d="M746.86,304.54a1.23,1.23,0,0,0,0,2.33,4.47,4.47,0,0,0,4,0,1.23,1.23,0,0,0,0-2.33A4.45,4.45,0,0,0,746.86,304.54Z"/><path class="cls-25" d="M744.46,285c-.45.26-.55.65-.26,1l.92,1-.18.06-16.53,9.54a1,1,0,0,0,0,1.88l.14.08a3,3,0,0,0,.84.31l11,2.29a4.5,4.5,0,0,0,3-.39l9.78-5.64.25,0,3.45.15-14.45,8.34a.31.31,0,0,0,0,.59l1,.58a1.12,1.12,0,0,0,1,0l14.45-8.34c.89-.52,1.1-1.28.51-1.94a3.59,3.59,0,0,0-2.42-.88l-2.54-.11-7.14-7.8,1.28-.73a.31.31,0,0,0,0-.58l-1-.59a1.1,1.1,0,0,0-1,0Z"/><path class="cls-2" d="M467.88,343.55c-2.89,1.67-2.91,4.38,0,6.06l40,23.22a11.55,11.55,0,0,0,10.46,0l40.22-23.22c2.9-1.68,2.91-4.39,0-6.06l-40-23.22a11.48,11.48,0,0,0-10.46,0Z"/><g class="cls-3"><path class="cls-29" d="M475.85,341.78l32.91,19.13a9.47,9.47,0,0,0,8.61,0l33.13-19.13a3,3,0,0,0,1.8-2.51l.06,4.77a3,3,0,0,1-1.8,2.51l-33.13,19.13a9.53,9.53,0,0,1-8.61,0l-32.91-19.13a3,3,0,0,1-1.77-2.48l-.06-4.76A3,3,0,0,0,475.85,341.78Z"/><path class="cls-30" d="M475.85,341.78l32.91,19.13a9.47,9.47,0,0,0,8.61,0l33.13-19.13a3,3,0,0,0,1.8-2.51l.06,4.77a3,3,0,0,1-1.8,2.51l-33.13,19.13a9.53,9.53,0,0,1-8.61,0l-32.91-19.13a3,3,0,0,1-1.77-2.48l-.06-4.76A3,3,0,0,0,475.85,341.78Z"/><path class="cls-31" d="M475.88,336.79c-2.39,1.38-2.4,3.62,0,5l32.91,19.13a9.47,9.47,0,0,0,8.61,0l33.13-19.13c2.39-1.37,2.4-3.61,0-5l-32.91-19.12a9.49,9.49,0,0,0-8.62,0Z"/></g><path class="cls-21" d="M506,334.41c-1.94,1.12-1.95,2.94,0,4.06a7.78,7.78,0,0,0,5.51.58c-1.11,1.37-.61,3.28,1.29,5a9.89,9.89,0,0,0-4.74-.16c.55-.71.33-1.58-.68-2.16a5.23,5.23,0,0,0-4.75,0c-1.31.76-1.32,2,0,2.75a5.3,5.3,0,0,0,3.74.4c-1,1.22-.08,3.08,2.37,4.51l.2.11,6.37-3.68.73-.42,9-5.2.73-.42,6.37-3.67L532,336a11.24,11.24,0,0,0-7.79-1.39c.56-.71.33-1.58-.67-2.16a5.26,5.26,0,0,0-4.75,0c-1.31.77-1.32,2,0,2.76a5.27,5.27,0,0,0,3.73.39,2.15,2.15,0,0,0,.26,2.75,15.39,15.39,0,0,0-8.69-.76c.81-1.06.48-2.34-1-3.2A7.71,7.71,0,0,0,506,334.41Z"/><path class="cls-2" d="M444.64,285.87c-2.9,1.67-2.91,4.38,0,6.06l40,23.22a11.52,11.52,0,0,0,10.45,0l40.22-23.22c2.9-1.68,2.92-4.39,0-6.06l-40-23.22a11.48,11.48,0,0,0-10.46,0Z"/><g class="cls-3"><path class="cls-32" d="M452.6,284.1l32.92,19.13a9.47,9.47,0,0,0,8.61,0l33.12-19.13a3,3,0,0,0,1.8-2.51l.06,4.77a3,3,0,0,1-1.8,2.51L494.19,308a9.53,9.53,0,0,1-8.61,0l-32.92-19.13a3.06,3.06,0,0,1-1.77-2.48l-.06-4.76A3.05,3.05,0,0,0,452.6,284.1Z"/><path class="cls-33" d="M452.6,284.1l32.92,19.13a9.47,9.47,0,0,0,8.61,0l33.12-19.13a3,3,0,0,0,1.8-2.51l.06,4.77a3,3,0,0,1-1.8,2.51L494.19,308a9.53,9.53,0,0,1-8.61,0l-32.92-19.13a3.06,3.06,0,0,1-1.77-2.48l-.06-4.76A3.05,3.05,0,0,0,452.6,284.1Z"/><path class="cls-34" d="M452.63,279.11c-2.38,1.38-2.4,3.62,0,5l32.92,19.13a9.47,9.47,0,0,0,8.61,0l33.12-19.13c2.39-1.37,2.4-3.61,0-5L494.37,260a9.47,9.47,0,0,0-8.61,0Z"/></g><path class="cls-2" d="M476.43,278.33c-1.74,1-1.75,2.65,0,3.66a7,7,0,0,0,6.31,0,2.13,2.13,0,0,0,1.31-1.92l9-1.42a3.09,3.09,0,0,0,.78.6,4.9,4.9,0,0,0,1,.46l-2.49,5.19a6.36,6.36,0,0,0-3.32.75c-1.74,1-1.78,2.63-.05,3.63a7,7,0,0,0,6.31,0c1.74-1,1.75-2.65,0-3.65l-.81-.37L497,280a6.3,6.3,0,0,0,3.09-.73c1.74-1,1.75-2.65,0-3.66a7,7,0,0,0-6.31,0,2.26,2.26,0,0,0-1.3,1.77l-9.07,1.45-.66-.5A7,7,0,0,0,476.43,278.33Z"/><path class="cls-2" d="M377,326.38c-2.9,1.67-2.91,4.38,0,6.05l40,23.23a11.52,11.52,0,0,0,10.45,0l40.22-23.22c2.9-1.68,2.92-4.39,0-6.06l-40-23.23a11.51,11.51,0,0,0-10.46,0Z"/><g class="cls-3"><path class="cls-35" d="M384.94,324.61l32.92,19.13a9.47,9.47,0,0,0,8.61,0l33.12-19.13a3,3,0,0,0,1.8-2.51l.06,4.77a3.06,3.06,0,0,1-1.8,2.51L426.53,348.5a9.49,9.49,0,0,1-8.62,0L385,329.38a3,3,0,0,1-1.77-2.48l-.06-4.77A3.05,3.05,0,0,0,384.94,324.61Z"/><path class="cls-36" d="M384.94,324.61l32.92,19.13a9.47,9.47,0,0,0,8.61,0l33.12-19.13a3,3,0,0,0,1.8-2.51l.06,4.77a3.06,3.06,0,0,1-1.8,2.51L426.53,348.5a9.49,9.49,0,0,1-8.62,0L385,329.38a3,3,0,0,1-1.77-2.48l-.06-4.77A3.05,3.05,0,0,0,384.94,324.61Z"/><path class="cls-37" d="M385,319.62c-2.38,1.38-2.4,3.61,0,5l32.92,19.13a9.47,9.47,0,0,0,8.61,0l33.12-19.13c2.39-1.38,2.4-3.61,0-5L426.71,300.5a9.47,9.47,0,0,0-8.61,0Z"/></g><path class="cls-10" d="M412.32,316a14.91,14.91,0,0,1,13.52,0c.36.17,7.27,3.24,6.28,10.18a1.32,1.32,0,0,1-.73.9,3.41,3.41,0,0,1-1.55.42c-12,.56-17.28-3.45-17.56-3.67C408.55,321.71,408.58,318.2,412.32,316Zm2.24,7a11,11,0,0,0,9,0l.4-.22c2.85-1.64,2.73-4.36-.37-5.9a11,11,0,0,0-9,0l-.4.22c-2.85,1.64-2.73,4.36.37,5.9"/><path class="cls-2" d="M583.27,217.86c-2.39,1.38-2.4,3.61,0,5L616.14,242a9.47,9.47,0,0,0,8.61,0l33.12-19.12c2.39-1.38,2.4-3.61,0-5L625,198.74a9.55,9.55,0,0,0-8.62,0Z"/><g class="cls-3"><path class="cls-38" d="M589.83,216.41l27.09,15.75a7.84,7.84,0,0,0,7.09,0l27.28-15.75a2.51,2.51,0,0,0,1.48-2.07l.05,3.93a2.54,2.54,0,0,1-1.48,2.07l-27.28,15.74a7.78,7.78,0,0,1-7.09,0l-27.1-15.75a2.47,2.47,0,0,1-1.45-2l0-3.93A2.48,2.48,0,0,0,589.83,216.41Z"/><path class="cls-39" d="M589.83,216.41l27.09,15.75a7.84,7.84,0,0,0,7.09,0l27.28-15.75a2.51,2.51,0,0,0,1.48-2.07l.05,3.93a2.54,2.54,0,0,1-1.48,2.07l-27.28,15.74a7.78,7.78,0,0,1-7.09,0l-27.1-15.75a2.47,2.47,0,0,1-1.45-2l0-3.93A2.48,2.48,0,0,0,589.83,216.41Z"/><path class="cls-40" d="M589.85,212.3c-2,1.14-2,3,0,4.11l27.09,15.75a7.84,7.84,0,0,0,7.09,0l27.28-15.75c2-1.13,2-3,0-4.11l-27.09-15.75a7.83,7.83,0,0,0-7.1,0Z"/></g><path class="cls-21" d="M614.27,210.92c-1.46.84-1.47,2.21,0,3.06a5.87,5.87,0,0,0,4.17.44c-.84,1-.46,2.48,1,3.81a7.46,7.46,0,0,0-3.58-.12c.42-.54.25-1.19-.51-1.63a3.92,3.92,0,0,0-3.59,0,1.09,1.09,0,0,0,0,2.07,4,4,0,0,0,2.82.3c-.74.93-.06,2.33,1.8,3.41l.15.08,4.81-2.77.55-.32,6.79-3.93.56-.32,4.81-2.77-.14-.09a8.49,8.49,0,0,0-5.88-1c.42-.54.25-1.19-.51-1.63a4,4,0,0,0-3.59,0c-1,.58-1,1.51,0,2.08a4,4,0,0,0,2.82.3,1.62,1.62,0,0,0,.2,2.08,11.6,11.6,0,0,0-6.57-.58c.62-.8.37-1.76-.75-2.41A5.81,5.81,0,0,0,614.27,210.92Z"/><path class="cls-2" d="M657.61,199.64c-2.39,1.37-2.4,3.61,0,5l32.9,19.13a9.53,9.53,0,0,0,8.61,0l33.12-19.12c2.39-1.38,2.4-3.62,0-5l-32.9-19.12a9.49,9.49,0,0,0-8.62,0Z"/><g class="cls-3"><path class="cls-41" d="M664.17,198.18l27.1,15.75a7.84,7.84,0,0,0,7.09,0l27.27-15.75a2.51,2.51,0,0,0,1.48-2.07l0,3.93a2.51,2.51,0,0,1-1.48,2.07L698.4,217.86a7.84,7.84,0,0,1-7.09,0l-27.1-15.75a2.5,2.5,0,0,1-1.45-2l0-3.93A2.48,2.48,0,0,0,664.17,198.18Z"/><path class="cls-42" d="M664.17,198.18l27.1,15.75a7.84,7.84,0,0,0,7.09,0l27.27-15.75a2.51,2.51,0,0,0,1.48-2.07l0,3.93a2.51,2.51,0,0,1-1.48,2.07L698.4,217.86a7.84,7.84,0,0,1-7.09,0l-27.1-15.75a2.5,2.5,0,0,1-1.45-2l0-3.93A2.48,2.48,0,0,0,664.17,198.18Z"/><path class="cls-43" d="M664.19,194.08c-2,1.13-2,3,0,4.1l27.1,15.75a7.84,7.84,0,0,0,7.09,0l27.27-15.75c2-1.13,2-3,0-4.1l-27.09-15.75a7.8,7.8,0,0,0-7.1,0Z"/></g><path class="cls-25" d="M704.81,196.22c-.74.43-.74,1.12,0,1.54a2.92,2.92,0,0,0,2.67,0,.81.81,0,0,0,0-1.54A2.92,2.92,0,0,0,704.81,196.22Z"/><path class="cls-25" d="M696.78,200.86a.81.81,0,0,0,0,1.54,2.92,2.92,0,0,0,2.67,0,.81.81,0,0,0,0-1.54A2.92,2.92,0,0,0,696.78,200.86Z"/><path class="cls-25" d="M695.18,187.91c-.29.17-.36.43-.17.64l.61.67-.11,0-11,6.34a.66.66,0,0,0,0,1.24l.09,0a1.71,1.71,0,0,0,.56.21l7.27,1.52a3,3,0,0,0,2-.26l6.48-3.74.17,0,2.29.1-9.59,5.54a.2.2,0,0,0,0,.38l.66.39a.72.72,0,0,0,.67,0l9.59-5.54c.59-.34.73-.85.33-1.28a2.32,2.32,0,0,0-1.6-.58l-1.68-.08L697,188.4l.84-.49c.19-.11.19-.28,0-.39l-.66-.38a.7.7,0,0,0-.66,0Z"/><path class="cls-2" d="M536.63,305.05c-2.88,1.66-2.9,4.35,0,6l39.72,23.08a11.48,11.48,0,0,0,10.4,0l40-23.08c2.88-1.66,2.89-4.36,0-6L587,282a11.45,11.45,0,0,0-10.4,0Z"/><g class="cls-3"><path class="cls-44" d="M544.54,303.29l32.72,19a9.43,9.43,0,0,0,8.56,0l32.92-19a3,3,0,0,0,1.79-2.5l.06,4.74a3,3,0,0,1-1.79,2.5l-32.93,19a9.41,9.41,0,0,1-8.55,0L544.6,308a3,3,0,0,1-1.76-2.46l-.06-4.74A3,3,0,0,0,544.54,303.29Z"/><path class="cls-45" d="M544.54,303.29l32.72,19a9.43,9.43,0,0,0,8.56,0l32.92-19a3,3,0,0,0,1.79-2.5l.06,4.74a3,3,0,0,1-1.79,2.5l-32.93,19a9.41,9.41,0,0,1-8.55,0L544.6,308a3,3,0,0,1-1.76-2.46l-.06-4.74A3,3,0,0,0,544.54,303.29Z"/><path class="cls-46" d="M544.57,298.33c-2.37,1.37-2.38,3.59,0,5l32.72,19a9.43,9.43,0,0,0,8.56,0l32.92-19c2.38-1.37,2.39-3.59,0-5l-32.71-19a9.43,9.43,0,0,0-8.56,0Z"/></g><path class="cls-47" d="M579.4,299.11c-2.59,1.49-4.2,3.55-4.21,5.82,0,.71,1,1.29,2.22,1.29a3.12,3.12,0,0,0,1.57-.38,1.1,1.1,0,0,0,.66-.91c0-1.56,1.11-3,2.89-4a14.08,14.08,0,0,1,6.93-1.67,3.22,3.22,0,0,0,1.57-.37,1.13,1.13,0,0,0,.66-.91c0-.71-1-1.29-2.22-1.29A20.42,20.42,0,0,0,579.4,299.11Z"/><path class="cls-47" d="M573.12,295.46c-4.21,2.42-6.83,5.78-6.85,9.47,0,.71,1,1.29,2.22,1.29a3.16,3.16,0,0,0,1.58-.38,1.11,1.11,0,0,0,.65-.91c0-3,2.13-5.69,5.53-7.66a27,27,0,0,1,13.23-3.17,3.13,3.13,0,0,0,1.58-.38,1.12,1.12,0,0,0,.66-.91c0-.71-1-1.29-2.22-1.29A33.32,33.32,0,0,0,573.12,295.46Z"/><path class="cls-47" d="M584.75,302.31a2.22,2.22,0,0,0-1.3,1.79c0,1.41,1.95,2.54,4.38,2.54a6.29,6.29,0,0,0,3.1-.74,2.22,2.22,0,0,0,1.3-1.8c0-1.4-2-2.54-4.38-2.54A6.34,6.34,0,0,0,584.75,302.31Z"/><path class="cls-2" d="M691,241.26c-2.38,1.38-2.39,3.61,0,5l32.9,19.12a9.47,9.47,0,0,0,8.61,0l33.11-19.12c2.39-1.38,2.4-3.61,0-5l-32.91-19.12a9.53,9.53,0,0,0-8.61,0Z"/><g class="cls-3"><path class="cls-48" d="M697.52,239.81l27.1,15.75a7.84,7.84,0,0,0,7.09,0L759,239.81a2.52,2.52,0,0,0,1.49-2.07l0,3.93a2.51,2.51,0,0,1-1.48,2.07l-27.27,15.74a7.78,7.78,0,0,1-7.09,0l-27.1-15.75a2.5,2.5,0,0,1-1.46-2l0-3.92A2.47,2.47,0,0,0,697.52,239.81Z"/><path class="cls-49" d="M697.52,239.81l27.1,15.75a7.84,7.84,0,0,0,7.09,0L759,239.81a2.52,2.52,0,0,0,1.49-2.07l0,3.93a2.51,2.51,0,0,1-1.48,2.07l-27.27,15.74a7.78,7.78,0,0,1-7.09,0l-27.1-15.75a2.5,2.5,0,0,1-1.46-2l0-3.92A2.47,2.47,0,0,0,697.52,239.81Z"/><path class="cls-50" d="M697.54,235.7c-2,1.14-2,3,0,4.11l27.1,15.75a7.84,7.84,0,0,0,7.09,0L759,239.81c2-1.13,2-3,0-4.11L731.91,220a7.81,7.81,0,0,0-7.09,0Z"/></g><path class="cls-10" d="M721.19,233.63a12.31,12.31,0,0,1,11.21,0c.3.13,6,2.68,5.21,8.44a1.11,1.11,0,0,1-.61.74,2.76,2.76,0,0,1-1.29.35c-10,.46-14.33-2.87-14.56-3C718.06,238.32,718.08,235.42,721.19,233.63Zm1.85,5.78a9.18,9.18,0,0,0,7.44,0l.34-.18c2.36-1.36,2.26-3.61-.31-4.89a9.1,9.1,0,0,0-7.44,0,2.21,2.21,0,0,0-.34.18c-2.36,1.36-2.26,3.61.31,4.89"/><path class="cls-2" d="M500,191.6c-2.81,1.62-2.82,4.25,0,5.87L538.71,220a11.19,11.19,0,0,0,10.14,0l39-22.51c2.81-1.63,2.83-4.26,0-5.88l-38.75-22.51a11.12,11.12,0,0,0-10.14,0Z"/><g class="cls-3"><path class="cls-51" d="M507.72,189.89l31.91,18.55a9.24,9.24,0,0,0,8.35,0l32.12-18.55a3,3,0,0,0,1.75-2.44l0,4.63a2.94,2.94,0,0,1-1.74,2.43L548,213.06a9.24,9.24,0,0,1-8.35,0l-31.91-18.55a3,3,0,0,1-1.72-2.4l-.05-4.62A2.92,2.92,0,0,0,507.72,189.89Z"/><path class="cls-52" d="M507.72,189.89l31.91,18.55a9.24,9.24,0,0,0,8.35,0l32.12-18.55a3,3,0,0,0,1.75-2.44l0,4.63a2.94,2.94,0,0,1-1.74,2.43L548,213.06a9.24,9.24,0,0,1-8.35,0l-31.91-18.55a3,3,0,0,1-1.72-2.4l-.05-4.62A2.92,2.92,0,0,0,507.72,189.89Z"/><path class="cls-53" d="M507.75,185.05c-2.31,1.34-2.33,3.5,0,4.84l31.91,18.55a9.24,9.24,0,0,0,8.35,0l32.12-18.55c2.32-1.33,2.33-3.5,0-4.84l-31.91-18.54a9.17,9.17,0,0,0-8.35,0Z"/></g><path class="cls-54" d="M535.26,190.59a5,5,0,0,1-1.26-1.77h-1.23c-.53,0-1-.25-1-.55v-1.59a.49.49,0,0,1,.28-.4,1.42,1.42,0,0,1,.68-.16H534a5.13,5.13,0,0,1,1.27-1.77l-.87-.5a.42.42,0,0,1,0-.79l1.94-1.12a1.48,1.48,0,0,1,1.36,0l.87.5a15,15,0,0,1,3.06-.73V181a.49.49,0,0,1,.28-.4,1.42,1.42,0,0,1,.68-.16h2.75c.53,0,1,.25,1,.56v.71a15.62,15.62,0,0,1,3,.73l.87-.5a1.48,1.48,0,0,1,1.36,0l1.93,1.12c.38.22.37.57,0,.79l-.88.5a5.19,5.19,0,0,1,1.26,1.77h1.23c.53,0,1,.25,1,.56v1.59a.49.49,0,0,1-.28.39,1.42,1.42,0,0,1-.68.16h-1.24a4.91,4.91,0,0,1-1.27,1.77l.87.51a.41.41,0,0,1,0,.78L551.54,193a1.48,1.48,0,0,1-1.36,0l-.87-.5a15,15,0,0,1-3.06.73V194a.49.49,0,0,1-.28.39,1.42,1.42,0,0,1-.68.16h-2.75c-.53,0-.95-.24-.95-.55v-.72a15.09,15.09,0,0,1-3.05-.73l-.87.5a1.51,1.51,0,0,1-1.36,0l-1.93-1.13a.41.41,0,0,1,0-.78Zm12.14-1.12c1.91-1.1,1.92-2.89,0-4a7.65,7.65,0,0,0-6.91,0c-1.91,1.11-1.92,2.9,0,4a7.59,7.59,0,0,0,6.91,0"/><path class="cls-2" d="M629,333.72c-2.8,1.62-2.82,4.25,0,5.88l38.75,22.51a11.12,11.12,0,0,0,10.14,0l39-22.51c2.82-1.62,2.83-4.25,0-5.88l-38.75-22.51a11.19,11.19,0,0,0-10.14,0Z"/><g class="cls-3"><path class="cls-55" d="M636.75,332l31.91,18.55a9.24,9.24,0,0,0,8.35,0L709.13,332a3,3,0,0,0,1.74-2.43l.06,4.62a3,3,0,0,1-1.75,2.43l-32.11,18.55a9.24,9.24,0,0,1-8.35,0L636.8,336.63a2.92,2.92,0,0,1-1.71-2.4l-.06-4.62A2.93,2.93,0,0,0,636.75,332Z"/><path class="cls-56" d="M636.75,332l31.91,18.55a9.24,9.24,0,0,0,8.35,0L709.13,332a3,3,0,0,0,1.74-2.43l.06,4.62a3,3,0,0,1-1.75,2.43l-32.11,18.55a9.24,9.24,0,0,1-8.35,0L636.8,336.63a2.92,2.92,0,0,1-1.71-2.4l-.06-4.62A2.93,2.93,0,0,0,636.75,332Z"/><path class="cls-57" d="M636.77,327.17c-2.31,1.34-2.32,3.51,0,4.84l31.91,18.55a9.24,9.24,0,0,0,8.35,0L709.13,332c2.31-1.33,2.32-3.5,0-4.83l-31.92-18.55a9.17,9.17,0,0,0-8.35,0Z"/></g><path class="cls-54" d="M664.28,332.71a4.85,4.85,0,0,1-1.25-1.77h-1.24c-.53,0-1-.24-1-.55V328.8a.48.48,0,0,1,.29-.39,1.27,1.27,0,0,1,.68-.17H663a5.26,5.26,0,0,1,1.28-1.77l-.87-.5a.42.42,0,0,1,0-.79l1.95-1.12a1.48,1.48,0,0,1,1.36,0l.86.51a15.2,15.2,0,0,1,3.06-.74v-.71a.5.5,0,0,1,.29-.4,1.37,1.37,0,0,1,.68-.16h2.74c.53,0,1,.25,1,.56v.71a14.78,14.78,0,0,1,3,.74l.88-.51a1.48,1.48,0,0,1,1.36,0l1.93,1.12a.42.42,0,0,1,0,.79l-.87.5a5,5,0,0,1,1.25,1.77h1.24c.53,0,1,.25,1,.56v1.59a.48.48,0,0,1-.29.39,1.37,1.37,0,0,1-.68.16h-1.23a5,5,0,0,1-1.28,1.77l.87.51a.41.41,0,0,1,0,.78l-1.94,1.13a1.54,1.54,0,0,1-1.37,0l-.86-.51a15,15,0,0,1-3.06.74v.71a.5.5,0,0,1-.29.39,1.37,1.37,0,0,1-.68.17h-2.74c-.53,0-1-.25-1-.56v-.71a14.78,14.78,0,0,1-3-.74l-.88.51a1.51,1.51,0,0,1-1.36,0L663.4,334a.41.41,0,0,1,0-.78Zm12.14-1.12c1.92-1.1,1.93-2.89,0-4a7.65,7.65,0,0,0-6.91,0c-1.92,1.11-1.93,2.9,0,4a7.59,7.59,0,0,0,6.91,0"/><path class="cls-2" d="M594.6,97c-2.81,1.62-2.82,4.25,0,5.87l38.74,22.52a11.19,11.19,0,0,0,10.14,0l39-22.51c2.81-1.63,2.83-4.26,0-5.88L643.74,74.45a11.16,11.16,0,0,0-10.14,0Z"/><g class="cls-3"><path class="cls-58" d="M602.32,95.26l31.91,18.54a9.17,9.17,0,0,0,8.35,0L674.7,95.26a3,3,0,0,0,1.75-2.44l0,4.62a2.94,2.94,0,0,1-1.74,2.44l-32.12,18.55a9.24,9.24,0,0,1-8.35,0L602.38,99.88a3,3,0,0,1-1.72-2.4l0-4.62A2.93,2.93,0,0,0,602.32,95.26Z"/><path class="cls-59" d="M602.32,95.26l31.91,18.54a9.17,9.17,0,0,0,8.35,0L674.7,95.26a3,3,0,0,0,1.75-2.44l0,4.62a2.94,2.94,0,0,1-1.74,2.44l-32.12,18.55a9.24,9.24,0,0,1-8.35,0L602.38,99.88a3,3,0,0,1-1.72-2.4l0-4.62A2.93,2.93,0,0,0,602.32,95.26Z"/><path class="cls-60" d="M602.35,90.42c-2.31,1.34-2.33,3.5,0,4.84l31.91,18.54a9.17,9.17,0,0,0,8.35,0L674.7,95.26c2.32-1.34,2.33-3.5,0-4.84L642.82,71.88a9.17,9.17,0,0,0-8.35,0Z"/></g><path class="cls-47" d="M636.32,91.18c-2.52,1.45-4.09,3.46-4.1,5.68,0,.69,1,1.26,2.16,1.26a3.13,3.13,0,0,0,1.54-.37,1.1,1.1,0,0,0,.64-.89c0-1.52,1.08-2.91,2.82-3.91a13.75,13.75,0,0,1,6.76-1.62,3.09,3.09,0,0,0,1.53-.37,1.09,1.09,0,0,0,.64-.89c0-.69-1-1.25-2.16-1.25A20,20,0,0,0,636.32,91.18Z"/><path class="cls-47" d="M630.19,87.62c-4.1,2.36-6.65,5.63-6.67,9.24,0,.69,1,1.26,2.16,1.26a3.13,3.13,0,0,0,1.54-.37,1.1,1.1,0,0,0,.64-.89c0-2.92,2.08-5.56,5.39-7.47a26.32,26.32,0,0,1,12.91-3.1,3.24,3.24,0,0,0,1.54-.36,1.11,1.11,0,0,0,.64-.89c0-.7-1-1.26-2.17-1.26A32.56,32.56,0,0,0,630.19,87.62Z"/><path class="cls-47" d="M641.54,94.3a2.17,2.17,0,0,0-1.26,1.75c0,1.37,1.9,2.48,4.27,2.48a6.13,6.13,0,0,0,3-.73,2.16,2.16,0,0,0,1.27-1.75c0-1.37-1.9-2.48-4.27-2.48A6.17,6.17,0,0,0,641.54,94.3Z"/><path class="cls-2" d="M763.56,259c-2.81,1.62-2.83,4.25,0,5.88l38.75,22.51a11.19,11.19,0,0,0,10.14,0l39-22.51c2.81-1.63,2.82-4.26,0-5.88l-38.75-22.51a11.12,11.12,0,0,0-10.14,0Z"/><g class="cls-3"><path class="cls-61" d="M771.28,257.28l31.91,18.55a9.24,9.24,0,0,0,8.35,0l32.12-18.55a3,3,0,0,0,1.74-2.44l.06,4.63a3,3,0,0,1-1.75,2.43L811.6,280.45a9.24,9.24,0,0,1-8.35,0L771.33,261.9a2.92,2.92,0,0,1-1.71-2.4l-.06-4.62A2.93,2.93,0,0,0,771.28,257.28Z"/><path class="cls-62" d="M771.28,257.28l31.91,18.55a9.24,9.24,0,0,0,8.35,0l32.12-18.55a3,3,0,0,0,1.74-2.44l.06,4.63a3,3,0,0,1-1.75,2.43L811.6,280.45a9.24,9.24,0,0,1-8.35,0L771.33,261.9a2.92,2.92,0,0,1-1.71-2.4l-.06-4.62A2.93,2.93,0,0,0,771.28,257.28Z"/><path class="cls-63" d="M771.3,252.44c-2.31,1.34-2.32,3.51,0,4.84l31.91,18.55a9.24,9.24,0,0,0,8.35,0l32.12-18.55c2.31-1.33,2.32-3.5,0-4.84L811.77,233.9a9.17,9.17,0,0,0-8.35,0Z"/></g><path class="cls-47" d="M805.28,253.2c-2.53,1.45-4.1,3.47-4.11,5.68,0,.7,1,1.26,2.17,1.26a3.06,3.06,0,0,0,1.53-.37,1.08,1.08,0,0,0,.64-.89c0-1.52,1.09-2.91,2.82-3.91a13.82,13.82,0,0,1,6.77-1.62,3.23,3.23,0,0,0,1.53-.36,1.14,1.14,0,0,0,.64-.89c0-.7-1-1.26-2.17-1.26A20,20,0,0,0,805.28,253.2Z"/><path class="cls-47" d="M799.15,249.64c-4.1,2.37-6.65,5.64-6.68,9.24,0,.7,1,1.26,2.17,1.26a3.13,3.13,0,0,0,1.54-.37,1.12,1.12,0,0,0,.64-.89c0-2.91,2.07-5.56,5.39-7.47a26.21,26.21,0,0,1,12.91-3.09,3.06,3.06,0,0,0,1.53-.37,1.08,1.08,0,0,0,.64-.89c0-.7-1-1.26-2.16-1.26A32.54,32.54,0,0,0,799.15,249.64Z"/><path class="cls-47" d="M810.5,256.32a2.18,2.18,0,0,0-1.27,1.75c0,1.37,1.91,2.48,4.27,2.48a6.17,6.17,0,0,0,3-.73,2.16,2.16,0,0,0,1.27-1.75c0-1.37-1.91-2.48-4.27-2.48A6.17,6.17,0,0,0,810.5,256.32Z"/><path class="cls-2" d="M730.41,179.7c-2.81,1.63-2.83,4.26,0,5.88l38.75,22.51a11.12,11.12,0,0,0,10.14,0l39-22.51c2.81-1.62,2.82-4.25,0-5.87l-38.75-22.52a11.19,11.19,0,0,0-10.14,0Z"/><g class="cls-3"><path class="cls-64" d="M738.13,178,770,196.54a9.24,9.24,0,0,0,8.35,0L810.51,178a3,3,0,0,0,1.74-2.43l.06,4.62a3,3,0,0,1-1.75,2.44l-32.11,18.54a9.24,9.24,0,0,1-8.35,0l-31.92-18.55a2.92,2.92,0,0,1-1.71-2.4l-.06-4.62A2.93,2.93,0,0,0,738.13,178Z"/><path class="cls-65" d="M738.13,178,770,196.54a9.24,9.24,0,0,0,8.35,0L810.51,178a3,3,0,0,0,1.74-2.43l.06,4.62a3,3,0,0,1-1.75,2.44l-32.11,18.54a9.24,9.24,0,0,1-8.35,0l-31.92-18.55a2.92,2.92,0,0,1-1.71-2.4l-.06-4.62A2.93,2.93,0,0,0,738.13,178Z"/><path class="cls-66" d="M738.15,173.16c-2.31,1.33-2.32,3.5,0,4.83L770,196.54a9.24,9.24,0,0,0,8.35,0L810.51,178c2.31-1.33,2.32-3.5,0-4.83l-31.91-18.55a9.26,9.26,0,0,0-8.36,0Z"/></g><path class="cls-14" d="M770.86,168.57a1.87,1.87,0,0,0-.82.83l-2.25,4.8-2.25,4.8c-.65,1.38,1.53,2.64,3.91,2.27l8.3-1.28,8.3-1.29a4.07,4.07,0,0,0,1.43-.48c1.19-.68,1.34-1.86,0-2.62l-6-3.52-6.05-3.51A5,5,0,0,0,770.86,168.57Z"/><path class="cls-2" d="M349.15,201.81c-2.56,1.48-2.57,3.88,0,5.35l35.33,20.53a10.17,10.17,0,0,0,9.24,0l35.56-20.52c2.56-1.48,2.58-3.88,0-5.36L394,181.28a10.17,10.17,0,0,0-9.24,0Z"/><g class="cls-3"><path class="cls-67" d="M356.19,200.25l29.1,16.91a8.43,8.43,0,0,0,7.61,0l29.29-16.91a2.7,2.7,0,0,0,1.59-2.22l.05,4.21a2.7,2.7,0,0,1-1.59,2.22L393,221.37a8.37,8.37,0,0,1-7.61,0l-29.1-16.91a2.66,2.66,0,0,1-1.56-2.19l-.05-4.21A2.68,2.68,0,0,0,356.19,200.25Z"/><path class="cls-68" d="M356.19,200.25l29.1,16.91a8.43,8.43,0,0,0,7.61,0l29.29-16.91a2.7,2.7,0,0,0,1.59-2.22l.05,4.21a2.7,2.7,0,0,1-1.59,2.22L393,221.37a8.37,8.37,0,0,1-7.61,0l-29.1-16.91a2.66,2.66,0,0,1-1.56-2.19l-.05-4.21A2.68,2.68,0,0,0,356.19,200.25Z"/><path class="cls-69" d="M356.22,195.84c-2.11,1.21-2.12,3.19,0,4.41l29.1,16.91a8.43,8.43,0,0,0,7.61,0l29.29-16.91c2.11-1.22,2.12-3.19,0-4.41l-29.09-16.91a8.39,8.39,0,0,0-7.62,0Z"/></g><path class="cls-2" d="M379.39,201.33a4.88,4.88,0,0,1-1.26-1.77H376.9c-.54,0-1-.25-1-.56v-1.58a.49.49,0,0,1,.28-.4,1.42,1.42,0,0,1,.68-.16h1.23a5.07,5.07,0,0,1,1.28-1.77l-.87-.5a.42.42,0,0,1,0-.79l1.94-1.12a1.48,1.48,0,0,1,1.36,0l.87.5a14.93,14.93,0,0,1,3-.73v-.72a.49.49,0,0,1,.28-.39,1.42,1.42,0,0,1,.68-.16h2.74c.54,0,1,.25,1,.55v.72a15.09,15.09,0,0,1,3.05.73l.87-.5a1.48,1.48,0,0,1,1.36,0l1.93,1.12c.38.22.37.57,0,.79l-.88.5a5,5,0,0,1,1.26,1.77h1.23c.53,0,1,.25,1,.56V199a.49.49,0,0,1-.28.4,1.42,1.42,0,0,1-.68.16H398a5,5,0,0,1-1.27,1.77l.86.5a.42.42,0,0,1,0,.79l-1.94,1.12a1.48,1.48,0,0,1-1.36,0l-.87-.5a15,15,0,0,1-3.06.73v.72a.49.49,0,0,1-.28.39,1.42,1.42,0,0,1-.68.16h-2.75c-.53,0-1-.25-.95-.55V204a14.93,14.93,0,0,1-3.05-.73l-.87.5a1.48,1.48,0,0,1-1.36,0l-1.94-1.12a.42.42,0,0,1,0-.79Zm12.14-1.12c1.91-1.1,1.92-2.9,0-4a7.59,7.59,0,0,0-6.91,0c-1.91,1.1-1.92,2.9,0,4a7.59,7.59,0,0,0,6.91,0"/><path class="cls-2" d="M353.55,264.61c-2.81,1.62-2.83,4.25,0,5.88L392.26,293a11.19,11.19,0,0,0,10.14,0l39-22.51c2.81-1.63,2.82-4.26,0-5.88L402.68,242.1a11.12,11.12,0,0,0-10.14,0Z"/><g class="cls-3"><path class="cls-70" d="M361.27,262.9l31.91,18.55a9.24,9.24,0,0,0,8.35,0l32.12-18.55a3,3,0,0,0,1.74-2.43l.06,4.62a3,3,0,0,1-1.75,2.43l-32.11,18.55a9.24,9.24,0,0,1-8.35,0l-31.92-18.55a2.92,2.92,0,0,1-1.71-2.4l-.06-4.62A2.93,2.93,0,0,0,361.27,262.9Z"/><path class="cls-71" d="M361.27,262.9l31.91,18.55a9.24,9.24,0,0,0,8.35,0l32.12-18.55a3,3,0,0,0,1.74-2.43l.06,4.62a3,3,0,0,1-1.75,2.43l-32.11,18.55a9.24,9.24,0,0,1-8.35,0l-31.92-18.55a2.92,2.92,0,0,1-1.71-2.4l-.06-4.62A2.93,2.93,0,0,0,361.27,262.9Z"/><path class="cls-72" d="M361.29,258.06c-2.31,1.34-2.32,3.51,0,4.84l31.91,18.55a9.24,9.24,0,0,0,8.35,0l32.12-18.55c2.31-1.33,2.33-3.5,0-4.84l-31.91-18.54a9.2,9.2,0,0,0-8.36,0Z"/></g><path class="cls-47" d="M395.27,258.82c-2.53,1.45-4.09,3.47-4.11,5.68,0,.7,1,1.26,2.17,1.26a3.06,3.06,0,0,0,1.53-.37,1.08,1.08,0,0,0,.64-.89c0-1.52,1.09-2.91,2.82-3.91a13.82,13.82,0,0,1,6.77-1.62,3.23,3.23,0,0,0,1.53-.36,1.14,1.14,0,0,0,.64-.89c0-.7-1-1.26-2.17-1.26A20,20,0,0,0,395.27,258.82Z"/><path class="cls-47" d="M389.14,255.26c-4.1,2.37-6.65,5.64-6.67,9.24,0,.7,1,1.26,2.16,1.26a3.13,3.13,0,0,0,1.54-.37,1.12,1.12,0,0,0,.64-.89c0-2.91,2.07-5.56,5.39-7.47a26.21,26.21,0,0,1,12.91-3.09,3.06,3.06,0,0,0,1.53-.37,1.11,1.11,0,0,0,.65-.89c0-.69-1-1.26-2.17-1.26A32.54,32.54,0,0,0,389.14,255.26Z"/><path class="cls-47" d="M400.49,261.94a2.18,2.18,0,0,0-1.27,1.75c0,1.37,1.91,2.48,4.27,2.48a6.17,6.17,0,0,0,3-.73,2.16,2.16,0,0,0,1.27-1.75c0-1.37-1.91-2.48-4.27-2.48A6.17,6.17,0,0,0,400.49,261.94Z"/><path class="cls-2" d="M511.43,129.29c-2.8,1.62-2.82,4.25,0,5.87l38.75,22.52a11.19,11.19,0,0,0,10.14,0l39-22.51c2.82-1.63,2.83-4.26,0-5.88l-38.75-22.51a11.12,11.12,0,0,0-10.14,0Z"/><g class="cls-3"><path class="cls-73" d="M519.16,127.58l31.91,18.55a9.24,9.24,0,0,0,8.35,0l32.11-18.55a3,3,0,0,0,1.75-2.44l.06,4.63a3,3,0,0,1-1.75,2.43l-32.12,18.55a9.24,9.24,0,0,1-8.35,0L519.21,132.2a2.92,2.92,0,0,1-1.71-2.4l-.06-4.62A2.91,2.91,0,0,0,519.16,127.58Z"/><path class="cls-74" d="M519.16,127.58l31.91,18.55a9.24,9.24,0,0,0,8.35,0l32.11-18.55a3,3,0,0,0,1.75-2.44l.06,4.63a3,3,0,0,1-1.75,2.43l-32.12,18.55a9.24,9.24,0,0,1-8.35,0L519.21,132.2a2.92,2.92,0,0,1-1.71-2.4l-.06-4.62A2.91,2.91,0,0,0,519.16,127.58Z"/><path class="cls-75" d="M519.18,122.74c-2.31,1.34-2.32,3.5,0,4.84l31.91,18.55a9.24,9.24,0,0,0,8.35,0l32.11-18.55c2.32-1.33,2.33-3.5,0-4.84L559.65,104.2a9.17,9.17,0,0,0-8.35,0Z"/></g><path class="cls-10" d="M551.52,121.66a1.06,1.06,0,0,0,0,2l7.11,4.13a3.8,3.8,0,0,0,3.46,0,1.06,1.06,0,0,0,0-2L555,121.66A3.81,3.81,0,0,0,551.52,121.66Z"/><path class="cls-10" d="M563,119.62a1.06,1.06,0,0,0,0,2l3.16,1.83a3.75,3.75,0,0,0,3.45,0c1-.55,1-1.44,0-2l-3.16-1.84A3.75,3.75,0,0,0,563,119.62Z"/><path class="cls-10" d="M538.91,123a1.06,1.06,0,0,0,0,2l12.2,7.09a3.81,3.81,0,0,0,3.45,0c1-.56,1-1.45,0-2L542.36,123A3.75,3.75,0,0,0,538.91,123Z"/></g></svg>